<?xml version="1.0" encoding="UTF-8" standalone="no"?>
<svg width="1238px" height="1019px" viewBox="0 0 1238 1019" version="1.1" xmlns="http://www.w3.org/2000/svg" xmlns:xlink="http://www.w3.org/1999/xlink">
    <!-- Generator: Sketch 43 (38999) - http://www.bohemiancoding.com/sketch -->
    <title>Group 10</title>
    <desc>Created with Sketch.</desc>
    <defs>
        <polygon id="path-1" points="39.8052754 79.8428571 79.6104348 79.8428571 79.6104348 0.387642857 39.8052754 0.387642857 0.000115942029 0.387642857 0.000115942029 79.8428571 39.8052754 79.8428571"></polygon>
        <polygon id="path-3" points="0 312.973394 384.163689 312.973394 384.163689 0.708151824 0 0.708151824"></polygon>
        <polygon id="path-5" points="77.3604 77.2897788 0 77.2897788 0 0.0204495873 77.3604 0.0204495873"></polygon>
        <polygon id="path-7" points="20.6160369 0.748744732 0.0378501828 73.4091878 77.2915078 73.4091878 56.7117879 0.748744732"></polygon>
        <polygon id="path-9" points="0 96.7594937 163.75897 96.7594937 163.75897 0.297721519 0 0.297721519"></polygon>
        <polygon id="path-11" points="0.284016958 49.0484437 10.4220668 49.0484437 10.4220668 0.428214239 0.284016958 0.428214239 0.284016958 49.0484437"></polygon>
        <polygon id="path-13" points="0.0918972569 49.5815789 4.55334364 49.5815789 4.55334364 0.29652983 0.0918972569 0.29652983"></polygon>
    </defs>
    <g id="Page-1" stroke="none" stroke-width="1" fill="none" fill-rule="evenodd">
        <g id="Homepage" transform="translate(-341.000000, -4.000000)">
            <g id="Group-10" transform="translate(341.000000, 54.000000)">
                <g id="Page-1" transform="translate(1060.000000, 513.000000)">
                    <g id="Group-3" transform="translate(0.000000, 0.769037)">
                        <mask id="mask-2" fill="white">
                            <use xlink:href="#path-1"></use>
                        </mask>
                        <g id="Clip-2"></g>
                        <polygon id="Fill-1" fill="#000000" mask="url(#mask-2)" points="79.6105507 79.8428571 3.72417391 79.8428571 0.000115942029 73.8662143 0.000115942029 0.387642857 73.6233043 0.387642857 79.6105507 4.65518571"></polygon>
                    </g>
                    <polygon id="Fill-4" fill="#FFFFFF" points="1.73913043 73.1078229 71.884058 73.1078229 71.884058 3.10068 1.73913043 3.10068"></polygon>
                    <path d="M2.31884058,72.5304086 L71.3043478,72.5304086 L71.3043478,3.68040857 L2.31884058,3.68040857 L2.31884058,72.5304086 Z M1.15942029,73.6875514 L72.4637681,73.6875514 L72.4637681,2.52326571 L1.15942029,2.52326571 L1.15942029,73.6875514 Z" id="Fill-5" fill="#87DAFF"></path>
                    <path d="M0,74.8446943 L73.6231884,74.8446943 L73.6231884,1.36612286 L0,1.36612286 L0,74.8446943 Z M3.47826087,71.3721086 L70.1449275,71.3721086 L70.1449275,4.83639429 L3.47826087,4.83639429 L3.47826087,71.3721086 Z" id="Fill-6" fill="#87DAFF"></path>
                    <polygon id="Fill-7" fill="#80D8FF" points="17.8353623 38.1054086 36.8115942 38.1054086 36.8115942 19.1664514 17.8353623 19.1664514"></polygon>
                    <polygon id="Fill-8" fill="#41AB9E" points="36.8115942 38.1054086 55.7878261 38.1054086 55.7878261 19.1664514 36.8115942 19.1664514"></polygon>
                    <polygon id="Fill-9" fill="#F6585F" points="17.8353623 57.0432086 36.8115942 57.0432086 36.8115942 38.1054086 17.8353623 38.1054086"></polygon>
                    <polygon id="Fill-10" fill="#FFA787" points="36.8115942 57.0432086 55.7878261 57.0432086 55.7878261 38.1054086 36.8115942 38.1054086"></polygon>
                </g>
                <g id="window" transform="translate(225.000000, 491.000000)">
                    <g id="Group-9" transform="translate(0.000000, 6.224803)" fill="#1A1A1A">
                        <path d="M7.70989717,0.221458389 C10.5226735,0.221458389 12.9841003,1.72789045 14.3301157,3.9811008 L369.832584,3.9811008 C371.179589,1.72789045 373.640026,0.221458389 376.452802,0.221458389 C380.711555,0.221458389 384.163689,3.67506036 384.163689,7.9368468 C384.163689,12.1976428 380.711555,15.6522352 376.452802,15.6522352 C373.640026,15.6522352 371.179589,14.1448127 369.833573,11.8925928 L14.3301157,11.8925928 C12.9841003,14.1448127 10.5226735,15.6522352 7.70989717,15.6522352 C3.45213368,15.6522352 0,12.1976428 0,7.9368468 C0,3.67506036 3.45213368,0.221458389 7.70989717,0.221458389" id="Fill-1"></path>
                        <path d="M14.3316003,29.9032212 L192.081844,29.9032212 C177.613168,84.7171436 140.985713,182.205384 64.3430013,210.088739 L64.3430013,303.58954 C60.3326671,308.349509 51.912153,308.002861 47.5564075,303.58954 C43.6272301,308.002861 33.6439524,308.002861 30.5797879,303.58954 C27.2107905,308.436666 17.1819859,307.829537 14.3316003,303.58954 L14.3316003,29.9032212 Z" id="Fill-3"></path>
                        <path d="M369.832386,29.9032212 L192.082141,29.9032212 C206.549828,84.7171436 243.178272,182.205384 319.820985,210.088739 L319.820985,303.58954 C323.831319,308.349509 332.250843,308.002861 336.607578,303.58954 C340.535766,308.002861 350.519044,308.002861 353.584198,303.58954 C356.953195,308.436666 366.982,307.829537 369.832386,303.58954 L369.832386,29.9032212 Z" id="Fill-5"></path>
                        <polygon id="Fill-7" points="21.7727892 280.993653 362.391889 280.993653 362.391889 38.3986661 21.7727892 38.3986661"></polygon>
                    </g>
                    <polygon id="Fill-10" fill="#F4EFDB" points="21.7727892 280.860937 362.391889 280.860937 362.391889 38.2659495 21.7727892 38.2659495"></polygon>
                    <polygon id="Fill-11" fill="#DCF8F6" points="37.586491 265.034982 346.578188 265.034982 346.578188 54.0899239 37.586491 54.0899239"></polygon>
                    <g id="Group-85" transform="translate(0.000000, 0.282270)">
                        <path d="M116.84364,126.194636 C132.555401,126.194636 145.292072,134.972747 145.292072,145.801032 C145.292072,152.014941 141.096661,157.553381 134.551661,161.145643 C134.315118,171.833288 121.67247,180.446989 106.108177,180.446989 C99.3028817,180.446989 93.0577661,178.799917 88.1626247,176.053476 C83.4288072,178.476049 77.5667121,179.90919 71.2176761,179.90919 C55.5059152,179.90919 42.7692442,171.132069 42.7692442,160.303784 C42.7692442,152.809259 48.8718406,146.298224 57.8376889,142.999128 C56.885581,141.040073 56.3689486,138.94434 56.3689486,136.764421 C56.3689486,125.936136 69.1056195,117.159015 84.8183702,117.159015 C95.2965064,117.159015 104.450401,121.063259 109.387111,126.876046 C111.763422,126.432337 114.263447,126.194636 116.84364,126.194636 Z" id="Fill-12" fill="#EFFCFB"></path>
                        <path d="M263.977081,73.4276189 C279.688842,73.4276189 292.425513,82.2047398 292.425513,93.033025 C292.425513,99.2469334 288.230102,104.785374 281.685102,108.377635 C281.448559,119.06528 268.805911,127.678982 253.241618,127.678982 C246.436323,127.678982 240.191207,126.03191 235.296066,123.285469 C230.562248,125.709032 224.700153,127.142173 218.351117,127.142173 C202.639356,127.142173 189.902685,118.365052 189.902685,107.535776 C189.902685,100.042242 196.005281,93.5302169 204.97212,90.2311208 C204.020012,88.2720658 203.502389,86.1763326 203.502389,83.9974039 C203.502389,73.1681283 216.24005,64.3910074 231.951811,64.3910074 C242.429947,64.3910074 251.584832,68.2952514 256.520551,74.1080389 C258.896862,73.6653202 261.396888,73.4276189 263.977081,73.4276189" id="Fill-14" fill="#EFFCFB"></path>
                        <mask id="mask-4" fill="white">
                            <use xlink:href="#path-3"></use>
                        </mask>
                        <g id="Clip-17"></g>
                        <polygon id="Fill-16" fill="#CAEDEC" mask="url(#mask-4)" points="236.612686 264.752711 346.577198 264.752711 346.577198 88.7596506 236.612686 88.7596506"></polygon>
                        <polygon id="Fill-18" fill="#DCF8F6" mask="url(#mask-4)" points="276.715039 144.76307 293.412558 144.76307 293.412558 106.909136 276.715039 106.909136"></polygon>
                        <polygon id="Fill-19" fill="#DCF8F6" mask="url(#mask-4)" points="331.603766 144.76307 346.578188 144.76307 346.578188 106.909136 331.603766 106.909136"></polygon>
                        <polygon id="Fill-20" fill="#DCF8F6" mask="url(#mask-4)" points="249.27018 199.211527 265.967699 199.211527 265.967699 161.356602 249.27018 161.356602"></polygon>
                        <polygon id="Fill-21" fill="#DCF8F6" mask="url(#mask-4)" points="304.158907 199.211527 320.856427 199.211527 320.856427 161.356602 304.158907 161.356602"></polygon>
                        <polygon id="Fill-22" fill="#DCF8F6" mask="url(#mask-4)" points="331.603766 199.211527 346.578188 199.211527 346.578188 161.356602 331.603766 161.356602"></polygon>
                        <polygon id="Fill-23" fill="#DCF8F6" mask="url(#mask-4)" points="249.27018 253.658993 265.967699 253.658993 265.967699 215.804069 249.27018 215.804069"></polygon>
                        <polygon id="Fill-24" fill="#DCF8F6" mask="url(#mask-4)" points="331.603766 253.658993 346.578188 253.658993 346.578188 215.804069 331.603766 215.804069"></polygon>
                        <polygon id="Fill-25" fill="#CAEDEC" mask="url(#mask-4)" points="84.8237147 264.752711 236.612686 264.752711 236.612686 173.023775 84.8237147 173.023775"></polygon>
                        <polygon id="Fill-26" fill="#DCF8F6" mask="url(#mask-4)" points="97.4812082 264.753702 114.178728 264.753702 114.178728 241.213349 97.4812082 241.213349"></polygon>
                        <polygon id="Fill-27" fill="#DCF8F6" mask="url(#mask-4)" points="179.814794 264.753702 196.512314 264.753702 196.512314 241.213349 179.814794 241.213349"></polygon>
                        <polygon id="Fill-28" fill="#DCF8F6" mask="url(#mask-4)" points="207.258663 264.753702 223.955193 264.753702 223.955193 241.213349 207.258663 241.213349"></polygon>
                        <polygon id="Fill-29" fill="#DCF8F6" mask="url(#mask-4)" points="124.926067 224.619816 141.623586 224.619816 141.623586 186.765882 124.926067 186.765882"></polygon>
                        <polygon id="Fill-30" fill="#DCF8F6" mask="url(#mask-4)" points="152.369936 224.619816 169.067455 224.619816 169.067455 186.765882 152.369936 186.765882"></polygon>
                        <polygon id="Fill-31" fill="#DCF8F6" mask="url(#mask-4)" points="207.258663 224.619816 223.955193 224.619816 223.955193 186.765882 207.258663 186.765882"></polygon>
                        <polygon id="Fill-32" fill="#CAEDEC" mask="url(#mask-4)" points="37.586491 264.752711 84.8247044 264.752711 84.8247044 53.8076536 37.586491 53.8076536"></polygon>
                        <polygon id="Fill-33" fill="#DCF8F6" mask="url(#mask-4)" points="37.586491 257.634547 44.7233419 257.634547 44.7233419 219.780614 37.586491 219.780614"></polygon>
                        <polygon id="Fill-34" fill="#DCF8F6" mask="url(#mask-4)" points="55.4696915 257.634547 72.1672108 257.634547 72.1672108 219.780614 55.4696915 219.780614"></polygon>
                        <polygon id="Fill-35" fill="#DCF8F6" mask="url(#mask-4)" points="37.586491 203.188072 44.7233419 203.188072 44.7233419 165.333147 37.586491 165.333147"></polygon>
                        <polygon id="Fill-36" fill="#DCF8F6" mask="url(#mask-4)" points="37.586491 148.739615 44.7233419 148.739615 44.7233419 110.884691 37.586491 110.884691"></polygon>
                        <polygon id="Fill-37" fill="#DCF8F6" mask="url(#mask-4)" points="55.4696915 148.739615 72.1672108 148.739615 72.1672108 110.884691 55.4696915 110.884691"></polygon>
                        <polygon id="Fill-38" fill="#DCF8F6" mask="url(#mask-4)" points="55.4696915 94.2911582 72.1672108 94.2911582 72.1672108 56.4362339 55.4696915 56.4362339"></polygon>
                        <polygon id="Fill-39" fill="#DCF8F6" mask="url(#mask-4)" points="37.586491 94.2911582 45.7684833 94.2911582 45.7684833 56.4362339 37.586491 56.4362339"></polygon>
                        <polygon id="Fill-40" fill="#F4EFDB" mask="url(#mask-4)" points="130.040925 280.578667 145.854627 280.578667 145.854627 37.9836792 130.040925 37.9836792"></polygon>
                        <polygon id="Fill-41" fill="#58AFA9" mask="url(#mask-4)" points="238.309062 280.578667 254.122763 280.578667 254.122763 37.9836792 238.309062 37.9836792"></polygon>
                        <polygon id="Fill-42" fill="#F4EFDB" mask="url(#mask-4)" points="21.7717995 167.19316 362.3909 167.19316 362.3909 151.368195 21.7717995 151.368195"></polygon>
                        <polygon id="Fill-43" fill="#D5BE94" mask="url(#mask-4)" points="37.5860951 53.8077526 29.6792442 45.8952702 29.6792442 159.280777 37.5860951 151.368294 37.5860951 104.142986 37.5860951 101.033061"></polygon>
                        <polygon id="Fill-44" fill="#D5BE94" mask="url(#mask-4)" points="37.5860951 53.8077526 29.6792442 45.8952702 137.94738 45.8952702 130.04053 53.8077526"></polygon>
                        <polygon id="Fill-45" fill="#D5BE94" mask="url(#mask-4)" points="145.854231 53.8077526 137.94738 45.8952702 137.94738 159.280777 145.854231 151.368294 145.854231 104.142986 145.854231 101.033061"></polygon>
                        <polygon id="Fill-46" fill="#D5BE94" mask="url(#mask-4)" points="145.854231 53.8077526 137.94738 45.8952702 246.216506 45.8952702 238.309656 53.8077526"></polygon>
                        <polygon id="Fill-47" fill="#4A9E98" mask="url(#mask-4)" points="254.122467 53.8077526 246.216605 45.8952702 246.216605 159.280777 254.122467 151.368294 254.122467 104.142986 254.122467 101.033061"></polygon>
                        <polygon id="Fill-48" fill="#4A9E98" mask="url(#mask-4)" points="254.122467 53.8077526 246.216605 45.8952702 354.483752 45.8952702 346.577891 53.8077526"></polygon>
                        <polygon id="Fill-49" fill="#D5BE94" mask="url(#mask-4)" points="37.5860951 167.192764 29.6792442 159.281272 29.6792442 272.665788 37.5860951 264.753306 37.5860951 217.527997 37.5860951 214.418072"></polygon>
                        <polygon id="Fill-50" fill="#D5BE94" mask="url(#mask-4)" points="37.5860951 167.192764 29.6792442 159.281272 137.94738 159.281272 130.04053 167.192764"></polygon>
                        <polygon id="Fill-51" fill="#D5BE94" mask="url(#mask-4)" points="145.854231 167.192764 137.94738 159.281272 137.94738 272.665788 145.854231 264.753306 145.854231 217.527997 145.854231 214.418072"></polygon>
                        <polygon id="Fill-52" fill="#D5BE94" mask="url(#mask-4)" points="145.854231 167.192764 137.94738 159.281272 246.216506 159.281272 238.309656 167.192764"></polygon>
                        <polygon id="Fill-53" fill="#4A9E98" mask="url(#mask-4)" points="254.122467 167.192764 246.216605 159.281272 354.483752 159.281272 346.577891 167.192764"></polygon>
                        <polygon id="Fill-54" fill="#4A9E98" mask="url(#mask-4)" points="254.122467 167.192764 246.216605 159.281272 246.216605 272.665788 254.122467 264.753306 254.122467 217.527997 254.122467 214.418072"></polygon>
                        <path d="M7.70989717,0.70795374 C10.5226735,0.70795374 12.9841003,2.21537622 14.3301157,4.46759615 L369.832584,4.46759615 C371.179589,2.21537622 373.640026,0.70795374 376.452802,0.70795374 C380.711555,0.70795374 384.163689,4.16155571 384.163689,8.42334215 C384.163689,12.6851286 380.711555,16.139721 376.452802,16.139721 C373.640026,16.139721 371.179589,14.6313081 369.833573,12.3790881 L14.3301157,12.3790881 C12.9841003,14.6313081 10.5226735,16.139721 7.70989717,16.139721 C3.45213368,16.139721 0,12.6851286 0,8.42334215 C0,4.16155571 3.45213368,0.70795374 7.70989717,0.70795374" id="Fill-55" fill="#E08691" mask="url(#mask-4)"></path>
                        <polygon id="Fill-56" fill="#F4EFDB" mask="url(#mask-4)" points="238.309062 280.578667 254.122763 280.578667 254.122763 37.9836792 238.309062 37.9836792"></polygon>
                        <polygon id="Fill-57" fill="#D5BE94" mask="url(#mask-4)" points="346.577891 53.8077526 354.484742 45.8952702 246.216605 45.8952702 254.122467 53.8077526"></polygon>
                        <polygon id="Fill-58" fill="#D5BE94" mask="url(#mask-4)" points="254.122467 53.8077526 246.216605 45.8952702 246.216605 159.280777 254.122467 151.368294 254.122467 104.142986 254.122467 101.033061"></polygon>
                        <polygon id="Fill-59" fill="#D5BE94" mask="url(#mask-4)" points="346.577891 167.192764 354.484742 159.281272 246.216605 159.281272 254.122467 167.192764"></polygon>
                        <polygon id="Fill-60" fill="#D5BE94" mask="url(#mask-4)" points="254.122467 167.192764 246.216605 159.281272 246.216605 272.665788 254.122467 264.753306 254.122467 217.527997 254.122467 214.418072"></polygon>
                        <path d="M369.832386,27.3159414 L192.081152,27.3159414 C206.549828,82.1298639 243.177283,179.618105 319.820985,207.501459 L319.820985,301.00127 C323.831319,305.762229 332.250843,305.415581 336.607578,301.00127 C340.535766,305.415581 350.519044,305.415581 353.583208,301.00127 C356.953195,305.848396 366.98101,305.242258 369.832386,301.00127 L369.832386,27.3159414 Z" id="Fill-61" fill="#205B8B" mask="url(#mask-4)"></path>
                        <polygon id="Fill-62" fill="#0A447F" mask="url(#mask-4)" points="360.972635 37.9836792 369.832584 37.9836792 369.832584 4.46779424 360.972635 4.46779424"></polygon>
                        <polygon id="Fill-63" fill="#0A447F" mask="url(#mask-4)" points="327.194576 37.9836792 336.054524 37.9836792 336.054524 4.46779424 327.194576 4.46779424"></polygon>
                        <polygon id="Fill-64" fill="#0A447F" mask="url(#mask-4)" points="293.416517 37.9836792 302.276465 37.9836792 302.276465 4.46779424 293.416517 4.46779424"></polygon>
                        <polygon id="Fill-65" fill="#0A447F" mask="url(#mask-4)" points="259.638458 37.9836792 268.497416 37.9836792 268.497416 4.46779424 259.638458 4.46779424"></polygon>
                        <polygon id="Fill-66" fill="#0A447F" mask="url(#mask-4)" points="225.860398 37.9836792 234.719357 37.9836792 234.719357 4.46779424 225.860398 4.46779424"></polygon>
                        <polygon id="Fill-67" fill="#0A447F" mask="url(#mask-4)" points="192.082339 27.3158424 200.942288 27.3158424 200.942288 4.46779424 192.082339 4.46779424"></polygon>
                        <path d="M355.484356,302.807107 L355.484356,212.686616 L351.682852,212.686616 L351.682852,302.750653 C352.452852,302.27624 353.103096,301.692882 353.583109,301.001567 C354.084896,301.721604 354.73415,302.3218 355.484356,302.807107" id="Fill-68" fill="#0D3B60" mask="url(#mask-4)"></path>
                        <path d="M338.50744,302.552667 L338.50744,212.686715 L334.705936,212.686715 L334.705936,302.522955 C335.395769,302.086178 336.037105,301.579082 336.607183,301.001666 C337.13965,301.599881 337.784946,302.117872 338.50744,302.552667" id="Fill-69" fill="#0D3B60" mask="url(#mask-4)"></path>
                        <path d="M318.59809,27.3159414 C318.59809,58.1507537 319.990622,93.0304499 325.277692,125.815403 C330.546946,158.495372 339.677087,189.124176 355.142409,211.60973 L352.024799,213.763898 C336.200211,190.756392 326.886972,159.59375 321.53656,126.409657 C316.201985,93.3315382 314.796586,58.2715852 314.796586,27.3159414 L318.59809,27.3159414 Z" id="Fill-70" fill="#0D3B60" mask="url(#mask-4)"></path>
                        <path d="M261.538616,27.3159414 C261.538616,56.3511567 270.401533,90.3612622 283.667703,122.313271 C298.401623,157.797124 318.53742,190.687063 337.987343,211.386885 L335.226032,213.986743 C315.476225,192.968005 295.065287,159.654166 280.164104,123.770182 C266.718796,91.38833 257.737112,56.8671666 257.737112,27.3159414 L261.538616,27.3159414 Z" id="Fill-71" fill="#0D3B60" mask="url(#mask-4)"></path>
                        <polygon id="Fill-72" fill="#0D3B60" mask="url(#mask-4)" points="317.825913 216.429025 374.583226 216.429025 374.583226 206.910078 317.825913 206.910078"></polygon>
                        <path d="M14.3311054,27.3159414 L192.08135,27.3159414 C177.613663,82.1298639 140.985219,179.618105 64.3425064,207.501459 L64.3425064,301.00127 C60.3321722,305.762229 51.9126478,305.415581 47.5559126,301.00127 C43.6267352,305.415581 33.6434576,305.415581 30.5792931,301.00127 C27.2102956,305.848396 17.181491,305.242258 14.3311054,301.00127 L14.3311054,27.3159414 Z" id="Fill-73" fill="#205B8B" mask="url(#mask-4)"></path>
                        <polygon id="Fill-74" fill="#0A447F" mask="url(#mask-4)" points="14.3301157 37.9836792 23.1900643 37.9836792 23.1900643 4.46779424 14.3301157 4.46779424"></polygon>
                        <polygon id="Fill-75" fill="#0A447F" mask="url(#mask-4)" points="48.1091645 37.9836792 56.9691131 37.9836792 56.9691131 4.46779424 48.1091645 4.46779424"></polygon>
                        <polygon id="Fill-76" fill="#0A447F" mask="url(#mask-4)" points="81.8872237 37.9836792 90.7471722 37.9836792 90.7471722 4.46779424 81.8872237 4.46779424"></polygon>
                        <polygon id="Fill-77" fill="#0A447F" mask="url(#mask-4)" points="115.665283 37.9836792 124.525231 37.9836792 124.525231 4.46779424 115.665283 4.46779424"></polygon>
                        <polygon id="Fill-78" fill="#0A447F" mask="url(#mask-4)" points="149.443342 37.9836792 158.30329 37.9836792 158.30329 4.46779424 149.443342 4.46779424"></polygon>
                        <polygon id="Fill-79" fill="#0A447F" mask="url(#mask-4)" points="183.221401 27.3158424 192.08135 27.3158424 192.08135 4.46779424 183.221401 4.46779424"></polygon>
                        <path d="M28.679135,302.807107 L28.679135,212.686616 L32.4796491,212.686616 L32.4796491,302.750653 C31.7096491,302.27624 31.0594049,301.692882 30.579392,301.001567 C30.0785951,301.721604 29.4293406,302.3218 28.679135,302.807107" id="Fill-80" fill="#0D3B60" mask="url(#mask-4)"></path>
                        <path d="M45.6555566,302.552667 L45.6555566,212.686715 L49.4560707,212.686715 L49.4560707,302.522955 C48.7662378,302.086178 48.1258907,301.579082 47.5558136,301.001666 C47.0233458,301.599881 46.3790398,302.117872 45.6555566,302.552667" id="Fill-81" fill="#0D3B60" mask="url(#mask-4)"></path>
                        <path d="M65.565401,27.3159414 C65.565401,58.1507537 64.1718792,93.0304499 58.8857995,125.815403 C53.6155553,158.495372 44.4854139,189.124176 29.0210823,211.60973 L32.1386915,213.763898 C47.9622905,190.756392 57.2765193,159.59375 62.6269306,126.409657 C67.9605167,93.3315382 69.3659152,58.2715852 69.3659152,27.3159414 L65.565401,27.3159414 Z" id="Fill-82" fill="#0D3B60" mask="url(#mask-4)"></path>
                        <path d="M122.624875,27.3159414 C122.624875,56.3511567 113.761958,90.3612622 100.494798,122.313271 C85.7608779,157.797124 65.6260707,190.687063 46.1751581,211.386885 L48.9364692,213.986743 C68.6862763,192.968005 89.0982044,159.654166 103.998397,123.770182 C117.443706,91.38833 126.425389,56.8671666 126.425389,27.3159414 L122.624875,27.3159414 Z" id="Fill-83" fill="#0D3B60" mask="url(#mask-4)"></path>
                        <polygon id="Fill-84" fill="#0D3B60" mask="url(#mask-4)" points="9.58046272 216.429025 66.3367866 216.429025 66.3367866 206.910078 9.58046272 206.910078"></polygon>
                    </g>
                </g>
                <g id="Page-1" transform="translate(878.000000, 0.000000)">
                    <polygon id="Fill-1" fill="#697686" points="37.2558557 400 39 400 39 -50 37.2558557 -50"></polygon>
                    <g id="Group-24" transform="translate(0.000000, 396.340558)">
                        <g id="Group-7" transform="translate(0.000000, 0.918335)">
                            <mask id="mask-6" fill="white">
                                <use xlink:href="#path-5"></use>
                            </mask>
                            <g id="Clip-6"></g>
                            <polygon id="Fill-5" fill="#C2383E" mask="url(#mask-6)" points="55.7656577 0.0204495873 40.1037402 0.0204495873 37.255534 0.0204495873 21.5936165 0.0204495873 -0.000321649485 77.2901008 38.6796371 77.2901008 77.3604 77.2901008"></polygon>
                        </g>
                        <g id="Group-23" transform="translate(0.000000, 4.138743)">
                            <mask id="mask-8" fill="white">
                                <use xlink:href="#path-7"></use>
                            </mask>
                            <g id="Clip-9"></g>
                            <polygon id="Fill-8" fill="#FFFFFF" mask="url(#mask-8)" points="0 2.76149939 85.039299 2.76149939 85.039299 0.748744732 0 0.748744732"></polygon>
                            <polygon id="Fill-10" fill="#FFFFFF" mask="url(#mask-8)" points="0 8.19593696 85.039299 8.19593696 85.039299 6.1831823 0 6.1831823"></polygon>
                            <polygon id="Fill-11" fill="#FFFFFF" mask="url(#mask-8)" points="0 13.6303745 85.039299 13.6303745 85.039299 11.6176199 0 11.6176199"></polygon>
                            <polygon id="Fill-12" fill="#FFFFFF" mask="url(#mask-8)" points="0 19.0648121 85.039299 19.0648121 85.039299 17.0520574 0 17.0520574"></polygon>
                            <polygon id="Fill-13" fill="#FFFFFF" mask="url(#mask-8)" points="0 24.4992497 85.039299 24.4992497 85.039299 22.486495 0 22.486495"></polygon>
                            <polygon id="Fill-14" fill="#FFFFFF" mask="url(#mask-8)" points="0 29.9336872 85.039299 29.9336872 85.039299 27.9209326 0 27.9209326"></polygon>
                            <polygon id="Fill-15" fill="#FFFFFF" mask="url(#mask-8)" points="0 35.3681248 85.039299 35.3681248 85.039299 33.3553702 0 33.3553702"></polygon>
                            <polygon id="Fill-16" fill="#FFFFFF" mask="url(#mask-8)" points="0 40.8025624 85.039299 40.8025624 85.039299 38.7898077 0 38.7898077"></polygon>
                            <polygon id="Fill-17" fill="#FFFFFF" mask="url(#mask-8)" points="0 46.237 85.039299 46.237 85.039299 44.2242453 0 44.2242453"></polygon>
                            <polygon id="Fill-18" fill="#FFFFFF" mask="url(#mask-8)" points="0 51.6714375 85.039299 51.6714375 85.039299 49.6586829 0 49.6586829"></polygon>
                            <polygon id="Fill-19" fill="#FFFFFF" mask="url(#mask-8)" points="0 57.1058751 85.039299 57.1058751 85.039299 55.0931204 0 55.0931204"></polygon>
                            <polygon id="Fill-20" fill="#FFFFFF" mask="url(#mask-8)" points="0 62.5403127 85.039299 62.5403127 85.039299 60.527558 0 60.527558"></polygon>
                            <polygon id="Fill-21" fill="#FFFFFF" mask="url(#mask-8)" points="0 67.9747502 85.039299 67.9747502 85.039299 65.9619956 0 65.9619956"></polygon>
                            <polygon id="Fill-22" fill="#FFFFFF" mask="url(#mask-8)" points="0 73.4091878 85.039299 73.4091878 85.039299 71.3964331 0 71.3964331"></polygon>
                        </g>
                    </g>
                </g>
                <g id="Page-1" transform="translate(769.000000, 523.000000)">
                    <polygon id="Fill-1" fill="#C2383E" points="113.700455 72.6543468 127.102485 72.6543468 127.102485 2.36725823 113.700455 2.36725823"></polygon>
                    <polygon id="Fill-2" fill="#FFFFFF" points="94.9258091 1.24087848 75.526597 67.1452582 94.3021121 72.6543468 113.700082 6.74996709"></polygon>
                    <polygon id="Fill-3" fill="#289487" points="6.74760606 72.6543468 66.3839697 72.6543468 66.3839697 48.7237392 6.74760606 48.7237392"></polygon>
                    <polygon id="Fill-4" fill="#FFAE91" points="17.4212727 48.9854861 70.9933636 48.9854861 70.9933636 34.2718405 17.4212727 34.2718405"></polygon>
                    <polygon id="Fill-5" fill="#87DAFF" points="127.102485 72.6543468 142.829091 72.6543468 142.829091 18.5843975 127.102485 18.5843975"></polygon>
                    <g id="Group-12" transform="translate(0.000000, 0.943157)">
                        <path d="M53.3381424,59.5661367 C53.3381424,54.4279595 55.0999,50.2623392 57.2716576,50.2623392 C59.4434152,50.2623392 61.2051727,54.4279595 61.2051727,59.5661367 C61.2051727,64.7043139 59.4434152,68.8699342 57.2716576,68.8699342 C55.0999,68.8699342 53.3381424,64.7043139 53.3381424,59.5661367 Z" id="Fill-6" fill="#FFFFFF"></path>
                        <mask id="mask-10" fill="white">
                            <use xlink:href="#path-9"></use>
                        </mask>
                        <g id="Clip-9"></g>
                        <polygon id="Fill-8" fill="#0EA881" mask="url(#mask-10)" points="127.102485 31.6552405 142.829091 31.6552405 142.829091 27.3134684 127.102485 27.3134684"></polygon>
                        <polygon id="Fill-10" fill="#B16C4A" mask="url(#mask-10)" points="0 83.5170886 157.85497 83.5170886 157.85497 71.7111899 0 71.7111899"></polygon>
                        <polygon id="Fill-11" fill="#000000" mask="url(#mask-10)" points="0 83.5167165 9.23245455 96.7591215 163.75897 96.7591215 157.85497 83.5167165"></polygon>
                    </g>
                </g>
                <g id="Page-1" transform="translate(641.000000, 635.000000)">
                    <polygon id="Fill-1" fill="#C2383E" points="30.1557197 32.7978 90.4824242 32.7978 90.4824242 23.6987388 30.1557197 23.6987388"></polygon>
                    <polygon id="Fill-2" fill="#DFEFF7" points="36.3193182 23.6987388 75.0693182 23.6987388 75.0693182 0.000697959184 36.3193182 0.000697959184"></polygon>
                    <polygon id="Fill-3" fill="#C18851" points="0 43.8674327 149.192197 43.8674327 149.192197 32.7966367 0 32.7966367"></polygon>
                    <polygon id="Fill-4" fill="#000000" points="0 43.8496347 8.72579545 56.2674918 154.772197 56.2674918 149.192197 43.8496347"></polygon>
                </g>
                <g id="wakeup" transform="translate(672.000000, 609.000000)">
                    <g id="Group">
                        <g id="Layer_1">
                            <polyline id="Shape" fill="#755230" fill-rule="nonzero" points="479.903109 330.528728 479.903109 139.445782 256.526313 139.445782 256.526313 330.528728"></polyline>
                            <polyline id="Shape" fill="#8A6038" fill-rule="nonzero" points="468.146238 330.528728 468.146238 139.445782 244.770193 139.445782 244.770193 330.528728"></polyline>
                            <g id="Group" transform="translate(0.770270, 213.086705)" fill-rule="nonzero">
                                <path d="M462.67412,0.317795761 L214.60812,0.317795761 C212.010995,0.317795761 209.905522,2.42019461 209.905522,5.01352794 L209.905522,44.7927129 C209.905522,47.3860462 212.010995,49.4891946 214.60812,49.4891946 L462.67337,49.4891946 C465.270495,49.4891946 467.375968,47.3860462 467.375968,44.7927129 L467.375968,5.01352794 C467.375968,2.42019461 465.271246,0.317795761 462.67412,0.317795761 Z" id="Shape" fill="#E6E6E6"></path>
                                <path d="M0.638022113,5.01277842 L0.638022113,44.7919634 C0.638022113,47.3852967 2.74349509,49.4884451 5.34062039,49.4884451 L219.311469,49.4884451 C221.908595,49.4884451 224.014068,47.3852967 224.014068,44.7919634 L224.014068,5.01277842 C224.014068,2.41944509 221.908595,0.317046243 219.311469,0.317046243 L5.34062039,0.317046243 C2.74349509,0.317795761 0.638022113,2.42019461 0.638022113,5.01277842 Z" id="Shape" fill="#F2F2F2"></path>
                            </g>
                            <polyline id="Shape" fill="#8A6038" fill-rule="nonzero" points="224.783587 330.528728 224.783587 257.879418 1.40829238 257.879418 1.40829238 330.528728"></polyline>
                            <g id="Group" transform="translate(276.996314, 0.973025)" fill-rule="nonzero">
                                <path d="M15.0197912,138.472757 C15.5399668,156.024227 15.1398894,187.689877 6.03493857,195.482618 L111.668882,212.431476 C126.417701,195.320723 128.292736,156.530902 128.32276,138.472757 L15.0197912,138.472757 Z" id="Shape" fill="#D9D9D9"></path>
                                <g id="Shape">
                                    <path d="M9.74747666,126.613879 C9.74747666,126.613879 -2.7547543,5.58391137 92.6445639,45.2491696 C92.6445639,45.2491696 122.750951,67.1238613 123.443017,128.887917 C30.6723501,147.615382 9.74747666,126.613879 9.74747666,126.613879 Z" fill="#F7D8BA"></path>
                                    <path d="M3.61721007,0.655078998 C3.61721007,0.655078998 -24.7995442,74.9465838 86.9128735,60.2485299 L94.8250983,85.1820058 C94.8250983,85.1820058 104.947882,74.8476474 108.03666,85.8108516 C111.122435,96.7740559 97.4575025,93.1186551 97.4575025,93.1186551 C97.4575025,93.1186551 109.708278,121.637077 123.443768,128.887917 C123.443768,128.887917 159.250319,13.9740193 103.702613,25.6177861 C103.702613,25.6177861 101.546849,4.82389981 70.5689988,3.89374759 C38.4644767,2.92911753 18.4868784,41.5143198 3.61721007,0.655078998 Z" fill="#240900"></path>
                                </g>
                                <path d="M9.74747666,126.613879 C9.74747666,126.613879 14.1062936,184.550145 1.33234029,195.482618 L106.965533,212.431476 C126.529543,189.735312 123.443017,128.887917 123.443017,128.887917 C123.443017,128.887917 47.796113,139.55806 9.74747666,126.613879 Z" id="Shape" fill="#58CBC0"></path>
                            </g>
                            <rect id="Rectangle-path" fill="#755230" fill-rule="nonzero" x="224.783587" y="257.879418" width="243.362651" height="72.6500597"></rect>
                            <path d="M240.792688,223.382089 L240.792688,238.532102 C240.792688,240.177295 242.128781,241.511437 243.77713,241.511437 L378.057516,241.511437 C378.065773,242.357644 378.751084,243.046451 379.605283,243.046451 L401.705618,243.046451 C402.562819,243.046451 403.257138,242.352397 403.257138,241.497197 L403.257138,238.119118 C403.257138,232.723335 402.313615,227.831229 400.560181,223.382838 L240.792688,223.382838 L240.792688,223.382089 Z" id="Shape" fill="#E6E6E6" fill-rule="nonzero"></path>
                            <path d="M237.716671,176.620391 C315.897649,176.620391 403.256387,182.294994 403.256387,234.597881 C403.256387,236.406468 402.103443,237.9902 400.292211,237.9902 L243.77638,237.9902 C242.128781,237.9902 240.791937,236.656058 240.791937,235.010116 L240.791937,217.099626 C240.824964,215.067682 239.184122,213.403751 237.149206,213.403751 L49.6104877,213.403751 C49.6104877,213.404501 72.7316585,176.620391 237.716671,176.620391 Z" id="Shape" fill="#91C8EC" fill-rule="nonzero"></path>
                            <path d="M237.125937,176.62264 C219.970649,176.632383 204.363877,177.04237 190.150996,177.764156 C382.848687,178.61336 375.762138,235.51679 375.762138,235.51679 L375.701338,237.936235 C375.700587,237.954224 375.705091,237.972212 375.705091,237.9902 L400.292211,237.9902 C400.506136,237.9902 400.710303,237.964717 400.904713,237.921994 L400.904713,234.597131 C400.904713,182.686243 314.852794,176.709584 237.125937,176.62264 Z" id="Shape" fill="#E6E6E6" fill-rule="nonzero"></path>
                            <path d="M237.716671,176.620391 C220.405254,176.620391 204.673881,177.030378 190.349909,177.755162 C385.262662,178.186135 378.113812,235.51679 378.113812,235.51679 L378.052262,237.936235 C378.030494,238.807175 378.731568,239.525214 379.603781,239.525214 L401.704117,239.525214 C402.561318,239.525214 403.255636,238.83116 403.255636,237.97521 L403.255636,234.597881 C403.256387,182.294994 315.897649,176.620391 237.716671,176.620391 Z" id="Shape" fill="#F2F2F2" fill-rule="nonzero"></path>
                            <path d="M323.081027,203.475632 C322.515064,202.464532 323.381273,201.481164 324.157408,201.023958 C323.468344,201.525385 322.154769,202.229183 321.338101,201.053938 C320.39608,199.698809 321.925081,198.24999 322.499301,197.777794 L322.489543,197.762803 C321.901812,198.140561 320.257967,199.039983 319.47958,197.884225 C318.707948,196.738212 320.183656,195.535985 320.78715,195.111757 C320.109345,195.538233 318.252326,196.529846 317.371104,195.102013 C316.712816,194.03395 319.239383,192.694561 319.239383,192.694561 C365.797733,175.706728 386.168654,137.427329 386.168654,137.427329 L394.847256,141.988898 C371.210413,183.450002 330.677994,200.542017 326.160797,203.049906 C326.161548,203.049906 323.684521,204.432767 323.081027,203.475632 Z" id="Shape" fill="#D9D9D9" fill-rule="nonzero"></path>
                            <g id="Group" transform="translate(322.783784, 136.635838)" fill-rule="nonzero">
                                <path d="M72.0642224,5.35380925 L63.4576794,0.657327553 C63.4576794,0.657327553 61.5150897,4.16282466 57.51957,9.48290559 L66.1824091,14.3847553 C68.221828,11.5111021 70.1966941,8.51377842 72.0642224,5.35380925 Z" id="Shape" fill="#58CBC0"></path>
                                <path d="M0.156878378,63.4774547 C0.266468059,63.4114971 0.369302211,63.3440405 0.460126536,63.2795819 C0.359544226,63.3372948 0.257460688,63.4040019 0.156878378,63.4774547 Z" id="Shape" fill="#F7D8BA"></path>
                            </g>
                            <path d="M380.303354,146.118744 C371.128596,158.338141 351.073684,180.183601 318.457243,191.511071 C318.457243,191.511071 315.909658,192.809987 316.552184,193.889293 C317.410887,195.329867 319.282168,194.368235 319.966729,193.951503 C319.356479,194.366736 317.862006,195.545728 318.616373,196.703734 C319.376746,197.871484 321.033351,196.997545 321.627838,196.628782 L321.636845,196.643773 C321.05587,197.106975 319.50435,198.532559 320.424603,199.901929 C321.118921,200.934765 322.209564,200.55326 322.941413,200.113293 C323.041995,200.039091 323.144079,199.972383 323.244661,199.91542 C323.153837,199.979879 323.051002,200.047335 322.941413,200.113293 C322.259104,200.611723 321.650356,201.461676 322.130749,202.349106 C322.71848,203.315985 325.216525,201.972098 325.216525,201.972098 C329.422216,199.722794 364.496168,185.508179 388.966943,151.020593 L380.303354,146.118744 Z" id="Shape" fill="#F7D8BA" fill-rule="nonzero"></path>
                            <g id="Group" transform="translate(214.695332, 100.658960)" fill-rule="nonzero">
                                <path d="M12.7544373,3.01756069 C12.7544373,3.01756069 12.2335111,0.308801541 10.9334472,0.573381503 C9.28885135,0.907666667 9.77750123,3.08876493 10.0079398,3.85552216 C9.75948649,3.16071869 8.99686241,1.41883815 7.68328747,1.85280925 C6.35995455,2.29127746 6.78630344,4.11410597 6.99197174,4.78042775 L6.97620885,4.78567437 C6.67446192,4.10736031 5.68740418,2.24630636 4.12762776,2.78820809 C2.77351966,3.25815607 3.10003686,4.71072254 3.39878133,5.50821002 C3.0287285,4.76318882 2.55358968,3.60518304 1.42616708,3.87800771 C0.167386978,4.18231214 0.9059914,6.89182081 0.9059914,6.89182081 C2.08145332,11.7869249 9.7129484,64.8490732 68.2676155,42.133422 L64.2420713,31.1642216 C49.3476327,36.5802408 18.2504349,42.7795067 12.7544373,3.01756069 Z" id="Shape" fill="#F7D8BA"></path>
                                <path d="M72.1978317,27.7359249 C72.1978317,27.7359249 69.0685209,29.4088497 64.2420713,31.1642216 L68.2676155,42.133422 C69.7313133,41.5652871 71.2182801,40.9641734 72.7472813,40.2993507 L72.1978317,27.7359249 Z" id="Shape" fill="#82BACE"></path>
                            </g>
                            <g id="Group" transform="translate(278.497543, 128.391137)" fill-rule="nonzero">
                                <path d="M8.39562039,0.00374759152 C8.39562039,0.00374759152 8.08336486,0.170890173 7.50614251,0.453458574 L5.95162039,13.8106243 C6.93642629,13.4163776 7.92948894,13.0093892 8.94507002,12.5671734 L8.39562039,0.00374759152 Z" id="Shape" fill="#FFFFFF"></path>
                                <path d="M0.439859951,3.43204432 L4.46540418,14.4012447 C4.9563059,14.2108671 5.45396314,14.0099961 5.95086978,13.8106243 L7.50614251,0.452709056 C6.25336732,1.06731407 3.7448145,2.23056647 0.439859951,3.43204432 Z" id="Shape" fill="#58CBC0"></path>
                            </g>
                            <polygon id="Shape" fill="#D9D9D9" fill-rule="nonzero" points="413.267329 220.231863 413.267329 226.925062 418.966743 226.925062 418.966743 235.955258 418.966743 261.428387 418.966743 266.249289 418.966743 293.902767 418.966743 300.752615 418.966743 330.528728 511.654092 330.528728 557.676504 333.226245 557.676504 253.748073 557.676504 226.925062 558.672569 226.925062 558.672569 220.231863"></polygon>
                            <g id="Group" transform="translate(415.109337, 216.834297)" fill-rule="nonzero">
                                <g transform="translate(6.004914, 6.745665)">
                                    <rect id="Rectangle-path" fill="#8A6038" x="0.203416462" y="0.647583815" width="92.6865983" height="39.3242274"></rect>
                                    <rect id="Rectangle-path" fill="#755230" x="5.03136732" y="5.46848555" width="83.0321978" height="29.6831734"></rect>
                                    <rect id="Rectangle-path" fill="#8A6038" x="0.203416462" y="35.1509094" width="92.6865983" height="39.3234778"></rect>
                                    <rect id="Rectangle-path" fill="#755230" x="5.03136732" y="39.9718112" width="83.0321978" height="29.6831734"></rect>
                                    <rect id="Rectangle-path" fill="#8A6038" x="0.203416462" y="67.6260385" width="92.6865983" height="39.3234778"></rect>
                                    <rect id="Rectangle-path" fill="#755230" x="5.03136732" y="72.4454412" width="83.0321978" height="29.6831734"></rect>
                                    <ellipse id="Oval" fill="#D9D9D9" cx="47.7233034" cy="21.4834432" rx="4.50518673" ry="4.49860886"></ellipse>
                                    <ellipse id="Oval" fill="#8A6038" cx="46.5470909" cy="20.310447" rx="4.50518673" ry="4.49860886"></ellipse>
                                    <ellipse id="Oval" fill="#D9D9D9" cx="47.7233034" cy="55.9867688" rx="4.50518673" ry="4.49860886"></ellipse>
                                    <ellipse id="Oval" fill="#8A6038" cx="46.5470909" cy="54.8130231" rx="4.50518673" ry="4.49860886"></ellipse>
                                    <ellipse id="Oval" fill="#D9D9D9" cx="47.7233034" cy="88.4611484" rx="4.50518673" ry="4.49860886"></ellipse>
                                    <ellipse id="Oval" fill="#8A6038" cx="46.5470909" cy="87.2874027" rx="4.50518673" ry="4.49860886"></ellipse>
                                    <rect id="Rectangle-path" fill="#755230" x="92.8907654" y="0.647583815" width="46.0216609" height="106.301183"></rect>
                                </g>
                                <rect id="Rectangle-path" fill="#8A6038" x="0.509667076" y="0.700799615" width="150.107087" height="6.69319846"></rect>
                                <polygon id="Shape" fill="#D9D9D9" points="6.20833047 7.39324855 6.20833047 18.7709364 98.8956794 18.7709364 144.91734 36.5637514 144.91734 7.39324855"></polygon>
                            </g>
                            <rect id="Rectangle-path" fill="#755230" fill-rule="nonzero" x="509.294912" y="217.535096" width="56.43193" height="6.69319846"></rect>
                            <g id="mobile" transform="translate(212.367188, 87.160156) rotate(15.000000) translate(-212.367188, -87.160156) translate(194.367188, 53.160156)">
                                <g id="Layer_1" transform="translate(-0.000000, -0.000000)">
                                    <path d="M35.8066104,65.6635883 C35.8066104,66.7639388 34.8899003,67.6637054 33.7674701,67.6637054 L2.03914029,67.6637054 C0.91788478,67.6637054 0,66.7639388 0,65.6635883 L0,2.00055723 C0,0.900060002 0.91788478,0 2.03914029,0 L33.7676169,0 C34.8900471,0 35.8067572,0.900060002 35.8067572,2.00055723 L35.8067572,65.6635883 L35.8066104,65.6635883 Z" id="Shape" fill="#1B384C"></path>
                                    <polygon id="Shape" fill="#DDDBDB" points="32.5429874 7.47120233 31.6858936 7.47120233 30.0467402 7.47120233 28.1818967 7.47120233 26.6257068 7.47120233 26.5192492 7.47120233 24.4344423 7.47120233 19.1893864 7.47120233 17.3710906 7.47120233 15.5059534 7.47120233 13.7601956 7.47120233 11.1439817 7.47120233 9.51951212 7.47120233 4.39339507 7.47120233 4.2072044 7.47120233 2.58038542 7.47120233 1.64502691 7.47120233 1.64458639 14.6873828 1.64223698 14.6853285 1.64223698 16.6291001 1.64443955 16.6311543 1.64414588 21.993804 1.64414588 21.993804 1.64370536 28.487618 1.64223698 28.487618 1.64223698 30.0924365 1.64355852 30.0924365 1.64282433 46.2056234 1.64223698 46.2056234 1.64223698 47.6645893 1.64282433 47.6645893 1.64253066 55.1121676 1.64223698 55.1118742 1.64223698 57.0557925 1.64238382 57.0560859 1.64223698 61.9053169 1.75765171 61.9053169 3.43689188 61.9053169 7.16188006 61.9053169 9.28295599 61.9053169 9.28295599 61.9053169 9.51951212 61.9053169 10.8925949 61.9053169 11.1439817 61.9053169 12.7539143 61.9053169 12.9913515 61.9053169 14.4070173 61.9053169 19.3686757 61.9053169 19.4492898 61.9053169 21.2198633 61.9053169 25.6173698 61.9053169 27.4240654 61.9053169 27.8224371 61.9053169 29.9830125 61.9053169 34.1643734 61.9053169 34.1643734 57.4585745 34.1643734 54.4841505 34.1643734 53.7771911 34.1643734 52.878305 34.1643734 51.1293948 34.1643734 50.367704 34.1643734 48.3879828 34.1643734 30.092143 34.1643734 28.4873246 34.1643734 24.2471821 34.1643734 21.993804 34.1643734 12.3885174 34.1643734 10.6002828 34.1643734 7.47120233"></polygon>
                                    <polygon id="Shape" fill="#E9E9F0" points="1.64223698 6.66563836 1.64223698 6.69586535 1.64443955 6.69615881 1.64414588 7.03276423 1.64355852 7.44009494 1.64223698 7.44009494 1.64223698 7.54075376 1.64355852 7.54075376 1.64311801 8.55145041 1.64223698 8.55145041 1.64223698 8.64301178 1.6426775 8.64301178 1.6426775 9.10976934 1.64223698 9.10976934 1.64223698 9.2319979 1.6426775 9.2319979 1.64223698 9.57036411 1.64223698 9.62274778 34.1643734 9.62274778 34.1643734 6.66563836"></polygon>
                                    <path d="M19.7003829,64.8839961 C19.7003829,65.875324 18.896004,66.6792739 17.9035254,66.6792739 C16.9101659,66.6792739 16.1063743,65.875324 16.1063743,64.8839961 C16.1063743,63.8925215 16.9103127,63.0885716 17.9035254,63.0885716 C18.896004,63.0885716 19.7003829,63.8926682 19.7003829,64.8839961 Z" id="Shape" fill="#FFFFFF" opacity="0.2"></path>
                                    <rect id="Rectangle-path" fill="#1B384C" x="2.8587904" y="7.48646256" width="9.14287247" height="1"></rect>
                                    <rect id="Rectangle-path" fill="#1B384C" x="14.6584041" y="7.48646256" width="4.28546909" height="1"></rect>
                                    <g id="Group" transform="translate(3.230438, 11.445171)" fill-rule="nonzero">
                                        <g transform="translate(8.810284, 0.000000)" id="Shape">
                                            <path d="M2.73911737,0.255021892 C2.55028361,0.396325736 0.555341583,1.83504245 0.0787052059,3.81784499 C-0.129951693,4.68709107 0.437724289,8.99795882 0.475608511,9.92560462 C0.495284812,10.4117309 0.983961912,9.74541654 1.29525862,10.066615 C1.23975383,9.50448101 5.36091112,5.78876217 6.1827638,5.59448772 C6.75543228,5.46008033 10.7799701,8.28307582 10.7441416,8.89509901 C10.7182981,9.3263472 10.8483967,9.63463315 10.8113935,10.0657346 C10.8420826,10.0807014 10.8714502,10.0961083 10.9014052,10.1109284 C11.014911,9.81775589 11.6022633,9.75598131 11.6677531,9.44945615 C11.8163532,8.75966449 11.7841957,6.1842075 11.5884605,4.92817333 C11.2705561,1.43812978 9.38177801,1.02228856 7.45144473,0.944079891 C2.63589021,0.748925049 3.37419203,-0.220979844 2.73911737,0.255021892 Z" fill="#000000"></path>
                                            <path d="M1.16266384,18.5402969 L9.37781338,20.31019 C8.81292733,19.9308852 10.3630968,18.2067729 9.82904677,17.3676071 C9.53258071,16.9027571 10.0098044,15.3779081 10.2008408,14.8603809 C9.34301276,16.1429738 7.9029718,16.9847808 6.26998562,16.9847808 C4.59280117,16.9847808 3.11884062,16.0954323 2.27041025,14.7532659 C2.28803082,14.7895089 2.30579822,14.8258987 2.32312512,14.8621417 C2.64455365,15.5315375 3.26244825,16.8957139 2.73911737,17.5976844 C2.64337895,17.7256355 1.46896806,18.152335 1.16266384,18.5402969 Z" fill="#E3AC91"></path>
                                        </g>
                                        <g transform="translate(8.663446, 4.695455)" id="Shape">
                                            <path d="M6.01933303,1.05178189 C4.99029183,1.54289712 3.95170616,1.65235991 2.88683647,1.16770093 C2.60050223,1.03740206 2.30506403,0.925885003 1.92122932,0.767706868 C1.72549417,2.22960739 1.53607306,3.64352623 1.34254048,5.08840573 C1.24166273,4.90601665 1.17426405,4.69149306 1.0321248,4.55385754 C0.886020918,4.4125537 0.666057489,4.27154332 0.480307329,4.27389104 C0.357844378,4.27535837 0.171360028,4.51394617 0.130098531,4.67593937 C-0.0856065952,5.51950718 0.0334790801,6.32888621 0.514373762,7.0615239 C0.607175422,7.20268101 1.30832721,7.58492038 1.36368516,7.6945299 C1.60126916,8.16466232 1.70493684,8.59473664 1.93679415,9.06780371 C2.09802235,9.39721922 2.25851636,9.72692819 2.41724832,10.0576643 C3.25070121,11.3765002 4.68839276,12.2573382 6.32960187,12.2878586 L6.32960187,0.899179604 C6.22608103,0.95097634 6.12285387,1.00233288 6.01933303,1.05178189 Z" fill="#F8D0A3"></path>
                                            <path d="M12.5230849,4.76236508 C12.4593571,4.54769476 12.2642093,4.24879971 12.0943177,4.22400184 C11.9198741,4.1984703 11.6648163,4.42884105 11.5159225,4.60609447 C11.3573374,4.79464633 11.2821563,5.05245615 11.1223965,5.37835006 C11.1121178,5.17130985 11.1132925,5.08150928 11.102867,4.99288257 C10.9391426,3.57881699 10.7688104,2.16548508 10.6138963,0.750539111 C10.5720474,0.362723887 10.3741097,0.140276714 10.0017283,0.10990299 C9.53258071,0.0716056865 9.05535698,0.0267053995 8.58899927,0.0685242942 C7.76538453,0.142624441 7.05131099,0.536308984 6.32960187,0.899032871 L6.32960187,12.2877119 C6.35867581,12.2882988 6.38745607,12.2891792 6.41682369,12.2891792 C8.04980987,12.2891792 9.48985083,11.4473722 10.3476788,10.1647794 C10.3749907,10.0925867 11.0159389,9.18783128 11.2990427,7.6540316 C11.3179848,7.54882407 11.6231143,7.47751185 11.70226,7.4025313 C11.8947648,7.22028896 12.1659747,7.08368057 12.2806552,6.86343439 C12.6222006,6.20430992 12.7386431,5.48663899 12.5230849,4.76236508 Z" fill="#EDBDA9"></path>
                                        </g>
                                        <polygon id="Shape" fill="#161D21" points="29.5040267 32.4623206 27.4966034 20.5157628 18.639331 17.2528619 14.9127276 19.0468191 11.77935 17.2528619 1.90551764 20.2582465 0.0425830405 32.4623206"></polygon>
                                        <polygon id="Shape" fill="#FFFFFF" points="18.2660686 32.4623206 19.9394353 17.827028 18.9804359 17.3139028 14.98042 19.0296514 10.9795231 17.4579946 10.1145 17.818224 12.0345546 32.4623206"></polygon>
                                        <polygon id="Shape" fill="#E5E1E1" points="11.6643758 17.13797 14.98042 19.0296514 13.1584532 21.6171405 10.3111162 17.7124296"></polygon>
                                        <polygon id="Shape" fill="#E5E1E1" points="18.5635626 17.0471423 14.9974532 19.0296514 16.8363063 21.502542 19.7542725 17.6637142"></polygon>
                                        <g transform="translate(6.314037, 17.607956)" id="Shape" fill="#000000">
                                            <polygon points="14.7362283 14.8543649 16.6755187 9.98136315 14.1314022 7.87867977 17.2409921 6.0795869 14.4672209 0.434036108 13.3957435 0.0394711673 11.5824402 14.8543649"></polygon>
                                            <polygon points="0.703941711 9.86705817 2.68875191 14.8543649 5.8344639 14.8543649 4.23040482 0.00528238671 3.20518141 0.332937095 0.138761977 5.96469499 3.24776445 7.76378786"></polygon>
                                        </g>
                                        <polygon id="Shape" fill="#E74C3C" points="13.2367179 32.4623206 16.712375 32.4623206 15.6768729 22.8159488 16.5072422 21.1072434 14.9882024 18.9533502 13.504991 21.1072434 14.3399123 22.8253397"></polygon>
                                    </g>
                                    <path d="M27.4355188,49.4269989 C27.4355188,51.5575616 25.706941,53.2846086 23.5745586,53.2846086 L12.4324858,53.2846086 C10.3002501,53.2846086 8.57181921,51.5574148 8.57181921,49.4269989 L8.57181921,49.4269989 C8.57181921,47.2962896 10.3002501,45.5689491 12.4324858,45.5689491 L23.5745586,45.5689491 C25.706941,45.5689491 27.4355188,47.2961428 27.4355188,49.4269989 L27.4355188,49.4269989 Z" id="Shape" fill="#52BA4A" fill-rule="nonzero"></path>
                                    <path d="M17.7408289,26.3538273 C17.5033917,26.3532403 17.2992868,26.4891151 17.1973812,26.6861774 C13.7303875,26.0546388 13.4183566,23.9000119 13.4202655,23.8138797 L13.4202655,23.8138797 C13.3358336,23.8138797 13.2252645,23.9171797 13.2243835,24.0561358 C13.223943,24.125247 13.1816536,26.4907291 17.1706566,27.1922594 C17.260081,27.417788 17.4798976,27.5778737 17.7378921,27.5784606 C18.076207,27.579341 18.350941,27.3058307 18.3518221,26.967758 C18.3525563,26.6293918 18.0791438,26.3545609 17.7408289,26.3538273 Z" id="Shape" fill="#2D2D2D" fill-rule="nonzero"></path>
                                </g>
                            </g>
                            <path d="M335.408365,107.501312 C335.364829,107.867077 334.202128,116.565237 324.33155,117.142366 C314.349882,117.697759 311.383455,109.65168 311.261855,109.308401 L309.054299,110.163601 C309.089577,110.264786 312.686521,120.313578 324.462908,119.621023 C336.336124,118.928468 337.731516,107.910549 337.743526,107.79962 L335.408365,107.501312 Z" id="Shape" fill="#40251C" fill-rule="nonzero"></path>
                            <polygon id="Shape" fill="#40251C" fill-rule="nonzero" points="291.528206 89.087896 291.183674 86.7643892 313.851474 82.068657 314.196006 85.5651599"></polygon>
                            <polygon id="Shape" fill="#40251C" fill-rule="nonzero" points="362.171516 93.2612139 338.900222 86.9982389 339.511222 83.5572004 362.781765 90.9931715"></polygon>
                            <path d="M307.863074,86.8940559 C307.926125,88.86379 306.377608,90.5104817 304.405744,90.5734412 C302.433881,90.6364008 300.784031,89.0901445 300.720979,87.1211599 C300.657928,85.1521753 302.292765,86.2074971 304.26538,86.1445376 C306.237243,86.0823276 307.800773,84.9243218 307.863074,86.8940559 Z" id="Shape" fill="#40251C" fill-rule="nonzero"></path>
                            <path d="M350.004059,89.1246224 C350.067111,91.0943565 348.518593,92.7410482 346.54673,92.8040077 C344.574866,92.8669672 342.924265,91.320711 342.861964,89.3517264 C342.798913,87.3819923 344.390215,87.0866821 346.362079,87.0244721 C348.333942,86.9615125 349.941007,87.1548882 350.004059,89.1246224 Z" id="Shape" fill="#40251C" fill-rule="nonzero"></path>
                            <g id="Group-2" transform="translate(212.000000, 83.500000) rotate(28.000000) translate(-212.000000, -83.500000) translate(173.000000, 59.000000)" fill-rule="nonzero" fill="#A1B9C2">
                                <path d="M70.9557764,27.2224875 L69.658715,26.9863892 C72.7399865,10.0802543 63.0473047,1.33787283 62.9497248,1.25167823 L63.8189361,0.263813102 C63.9247727,0.355254335 74.169156,9.59306744 70.9557764,27.2224875 Z" id="Shape"></path>
                                <path d="M77.1085614,22.287659 L75.8024926,22.1175183 C77.2346646,11.1872929 71.577285,2.74621773 71.5209889,2.66302119 L72.6093796,1.92174759 C72.8548305,2.2822659 78.6060369,10.865 77.1085614,22.287659 Z" id="Shape"></path>
                                <path d="M18.7933403,46.7924104 C6.03289803,38.2636416 5.3303231,21.8356994 5.32356757,21.6700559 L6.64089558,21.6250848 C6.64614988,21.7839827 7.33521376,37.5508497 19.5266904,45.7003622 L18.7933403,46.7924104 Z" id="Shape"></path>
                                <path d="M12.2840135,48.1010694 C3.17906265,41.3254239 0.997777641,29.659921 0.90920516,29.1659884 L2.20626658,28.9351368 C2.22653317,29.0505626 4.3928059,40.5878979 13.0714079,47.0449981 L12.2840135,48.1010694 Z" id="Shape"></path>
                            </g>
                        </g>
                    </g>
                </g>
                <g id="Page-1" transform="translate(0.000000, 721.000000)">
                    <path d="M15.6660274,88.3262775 C15.6660274,88.3262775 8.88633666,37.4113272 6.47309975,30.5466777 C6.47309975,30.5466777 -8.09117456,14.3932125 6.47309975,6.720863 C21.0373741,-0.952019629 129.851304,-4.18281929 140.595599,8.73984622 C151.339893,21.6619786 153.220531,72.1413573 153.220531,72.1413573 L151.339893,127.677524 L59.2862718,135.13502 L15.6660274,88.3262775 Z" id="Fill-1" fill="#83B5B1"></path>
                    <path d="M202.548065,83.1937843 C202.548065,83.1937843 195.261392,76.1793237 155.646309,72.1413573 C155.646309,72.1413573 136.243287,73.3521075 141.498294,124.638653 L175.49601,135.13502 C175.49601,135.13502 181.134723,76.4778795 202.548065,83.1937843" id="Fill-3" fill="#6E9996"></path>
                    <polygon id="Fill-5" fill="#7D7561" points="23.0745367 170.41194 23.0745367 217.932418 28.176382 217.932418 33.2125865 169.312082"></polygon>
                    <polygon id="Fill-7" fill="#66604F" points="23.0745367 170.41194 18.6130903 168.647262 19.5800928 214.401463 23.0745367 217.932418"></polygon>
                    <g id="Group-11" transform="translate(53.900249, 198.758155)">
                        <mask id="mask-12" fill="white">
                            <use xlink:href="#path-11"></use>
                        </mask>
                        <g id="Clip-10"></g>
                        <polygon id="Fill-9" fill="#918770" mask="url(#mask-12)" points="0.284016958 1.52807228 0.284016958 49.0485503 5.38586234 49.0485503 10.4220668 0.428214239"></polygon>
                    </g>
                    <g id="Group-14" transform="translate(49.630923, 198.225020)">
                        <mask id="mask-14" fill="white">
                            <use xlink:href="#path-13"></use>
                        </mask>
                        <g id="Clip-13"></g>
                        <polygon id="Fill-12" fill="#7D7561" mask="url(#mask-14)" points="4.55334364 2.06120753 0.0918972569 0.29652983 1.05889975 46.0507308 4.55334364 49.5816856"></polygon>
                    </g>
                    <polygon id="Fill-15" fill="#918770" points="197.055042 185.349057 197.055042 232.869535 202.156354 232.869535 207.192559 184.249199"></polygon>
                    <polygon id="Fill-17" fill="#7D7561" points="197.055042 185.349057 192.593062 183.58438 193.560065 229.33858 197.055042 232.869535"></polygon>
                    <polygon id="Fill-19" fill="#7D7561" points="165.944779 155.47477 165.944779 202.995248 171.047158 202.995248 176.082295 154.374912"></polygon>
                    <polygon id="Fill-21" fill="#66604F" points="165.944779 155.47477 161.483866 153.710092 162.450335 199.464293 165.944779 202.995248"></polygon>
                    <path d="M197.026918,111.258877 C197.026918,111.258877 210.666883,109.417428 208.086075,93.5817116 C205.506335,77.745995 189.653791,78.1138583 183.386953,83.2698094 C177.119582,88.4257605 170.852744,98.0014029 177.119582,151.0329 L177.487811,180.495554 L199.238963,180.495554 C199.238963,180.495554 204.030215,172.025101 197.026918,111.258877" id="Fill-23" fill="#94BFBB"></path>
                    <path d="M45.6956708,117.370153 L10.5276259,108.889571 C10.5276259,108.889571 -2.00338155,90.3140723 16.9951222,80.6216733 C16.9951222,80.6216733 52.3334065,77.6665046 59.286005,85.7083168 L45.6956708,117.370153 Z" id="Fill-25" fill="#6E9996"></path>
                    <path d="M13.3856733,109.578808 C13.3856733,109.578808 7.75496509,168.657125 13.3856733,174.714075 C19.0163815,180.771025 43.2704264,193.290107 43.2704264,193.290107 C43.2704264,193.290107 56.0036933,142.713164 45.695404,117.370047 L13.3856733,109.578808 Z" id="Fill-27" fill="#68918E"></path>
                    <path d="M45.6956708,117.370153 C45.6956708,117.370153 30.7391521,115.350637 33.5686484,97.9864218 C36.3981446,80.6216733 53.7801746,81.0252567 60.6521895,86.6791561 C67.5242045,92.3325223 74.3962195,102.832088 67.5242045,160.983816 L67.1202195,193.28968 L43.2701596,193.28968 C43.2701596,193.28968 38.0151521,184.001931 45.6956708,117.370153" id="Fill-29" fill="#94BFBB"></path>
                    <path d="M42.6677042,148.480462 C42.6677042,148.480462 38.8237092,185.617064 43.270213,193.289947 C43.270213,193.289947 50.1416943,202.577696 61.0562279,199.751013 C71.9707616,196.92433 179.520437,191.415443 208.410971,190.607743 C208.410971,190.607743 222.538707,164.167434 204.212622,142.31102 C204.212622,142.31102 124.932826,124.670108 42.6677042,148.480462" id="Fill-31" fill="#83B5B1"></path>
                    <path d="M141.498294,124.638813 C141.498294,124.638813 97.0674115,118.314762 70.3707781,127.466029 L69.7100998,138.241759 C69.7100998,138.241759 43.0662993,142.776608 42.6676509,148.480622 C42.6676509,148.480622 43.6746783,154.553565 73.183197,148.480622 C102.692249,142.407145 204.212569,142.310647 204.212569,142.310647 C204.212569,142.310647 205.047756,134.323748 175.49601,135.134647 L141.498294,124.638813 Z" id="Fill-33" fill="#7AA8A4"></path>
                    <path d="M102.007823,72.4100575 C102.007823,72.4100575 96.2490349,68.8817683 95.2857681,70.4801078 C94.3230349,72.0779142 98.6393242,76.2438331 98.6393242,76.2438331 C98.6393242,76.2438331 87.7338628,101.989468 95.7084314,121.420115 C95.7084314,121.420115 90.9694788,128.651029 93.8672843,128.072577 C96.7645561,127.495192 99.8646209,125.721451 99.8646209,125.721451 C99.8646209,125.721451 120.987648,133.520153 151.414072,131.009619 C151.414072,131.009619 154.249439,133.267447 156.659474,132.314734 C159.069509,131.361489 153.980471,128.134421 153.980471,128.134421 C153.980471,128.134421 160.572845,106.070618 152.36293,78.3022683 C152.36293,78.3022683 155.963574,74.3917212 154.685444,72.7901829 C153.406781,71.1886446 148.598451,74.3799923 148.598451,74.3799923 C148.598451,74.3799923 124.438332,63.8079201 102.007823,72.4100575" id="Fill-35" fill="#D7C9A8"></path>
                    <path d="M153.980578,128.134421 C153.980578,128.134421 160.572952,106.070618 152.363037,78.3022683 C152.363037,78.3022683 155.96368,74.3917212 154.685551,72.7901829 C154.537192,72.6046518 154.340269,72.4862958 154.110793,72.4169882 C153.770847,73.9326918 152.557291,76.1659954 148.555865,77.6326505 C148.555865,77.6326505 159.166743,113.287137 145.097177,126.828773 C145.097177,126.828773 128.625047,130.751049 102.029276,124.16203 C102.029276,124.16203 96.1376055,126.723745 93.1490768,126.3063 C92.7712414,127.448809 92.806997,128.283699 93.8668574,128.072577 C96.7646628,127.495192 99.8647277,125.721451 99.8647277,125.721451 C99.8647277,125.721451 120.987755,133.520153 151.414179,131.009619 C151.414179,131.009619 154.249012,133.267447 156.659581,132.314734 C159.069615,131.361489 153.980578,128.134421 153.980578,128.134421" id="Fill-37" fill="#C6BA9C"></path>
                </g>
            </g>
        </g>
    </g>
</svg>