<?xml version="1.0" encoding="UTF-8" standalone="no"?>
<svg width="80px" height="80px" viewBox="0 0 80 80" version="1.1" xmlns="http://www.w3.org/2000/svg" xmlns:xlink="http://www.w3.org/1999/xlink">
    <!-- Generator: Sketch 43 (38999) - http://www.bohemiancoding.com/sketch -->
    <title>Page 1</title>
    <desc>Created with Sketch.</desc>
    <defs>
        <polygon id="path-1" points="39.8052754 79.8428571 79.6104348 79.8428571 79.6104348 0.387642857 39.8052754 0.387642857 0.000115942029 0.387642857 0.000115942029 79.8428571 39.8052754 79.8428571"></polygon>
    </defs>
    <g id="Page-1" stroke="none" stroke-width="1" fill="none" fill-rule="evenodd">
        <g id="Homepage" transform="translate(-1408.000000, -448.000000)">
            <g id="Page-1" transform="translate(1408.000000, 447.000000)">
                <g id="Group-3" transform="translate(0.000000, 0.769037)">
                    <mask id="mask-2" fill="white">
                        <use xlink:href="#path-1"></use>
                    </mask>
                    <g id="Clip-2"></g>
                    <polygon id="Fill-1" fill="#000000" mask="url(#mask-2)" points="79.6105507 79.8428571 3.72417391 79.8428571 0.000115942029 73.8662143 0.000115942029 0.387642857 73.6233043 0.387642857 79.6105507 4.65518571"></polygon>
                </g>
                <polygon id="Fill-4" fill="#FFFFFF" points="1.73913043 73.1078229 71.884058 73.1078229 71.884058 3.10068 1.73913043 3.10068"></polygon>
                <path d="M2.31884058,72.5304086 L71.3043478,72.5304086 L71.3043478,3.68040857 L2.31884058,3.68040857 L2.31884058,72.5304086 Z M1.15942029,73.6875514 L72.4637681,73.6875514 L72.4637681,2.52326571 L1.15942029,2.52326571 L1.15942029,73.6875514 Z" id="Fill-5" fill="#87DAFF"></path>
                <path d="M0,74.8446943 L73.6231884,74.8446943 L73.6231884,1.36612286 L0,1.36612286 L0,74.8446943 Z M3.47826087,71.3721086 L70.1449275,71.3721086 L70.1449275,4.83639429 L3.47826087,4.83639429 L3.47826087,71.3721086 Z" id="Fill-6" fill="#87DAFF"></path>
                <polygon id="Fill-7" fill="#80D8FF" points="17.8353623 38.1054086 36.8115942 38.1054086 36.8115942 19.1664514 17.8353623 19.1664514"></polygon>
                <polygon id="Fill-8" fill="#41AB9E" points="36.8115942 38.1054086 55.7878261 38.1054086 55.7878261 19.1664514 36.8115942 19.1664514"></polygon>
                <polygon id="Fill-9" fill="#F6585F" points="17.8353623 57.0432086 36.8115942 57.0432086 36.8115942 38.1054086 17.8353623 38.1054086"></polygon>
                <polygon id="Fill-10" fill="#FFA787" points="36.8115942 57.0432086 55.7878261 57.0432086 55.7878261 38.1054086 36.8115942 38.1054086"></polygon>
            </g>
        </g>
    </g>
</svg>