<?xml version="1.0" encoding="UTF-8" standalone="no"?>
<svg width="121px" height="65px" viewBox="0 0 121 65" version="1.1" xmlns="http://www.w3.org/2000/svg" xmlns:xlink="http://www.w3.org/1999/xlink">
    <!-- Generator: Sketch 43 (38999) - http://www.bohemiancoding.com/sketch -->
    <title>bafe logo outlined</title>
    <desc>Created with Sketch.</desc>
    <defs>
        <path d="M1.85604317,0.518481308 C0.783077039,1.1311215 0.121075758,2.27910047 0.124238184,3.52260514 L0.129207711,5.49234813 L6.96742795,9.62850467 L6.96742795,9.61954439 L9.79810086,11.3406776 L21.0706454,18.194229 L27.6337346,14.1435748 L5.30097978,0.565257009 C4.75960248,0.236156542 4.14940476,0.0712266355 3.53875526,0.0712266355 C2.95897707,0.0712266355 2.37859651,0.220058411 1.85604317,0.518481308" id="path-1"></path>
        <linearGradient x1="79.0213527%" y1="67.2266799%" x2="19.6081916%" y2="31.8763478%" id="linearGradient-3">
            <stop stop-color="#7F1419" offset="0%"></stop>
            <stop stop-color="#D24B27" offset="92.47%"></stop>
            <stop stop-color="#E93E39" offset="100%"></stop>
        </linearGradient>
        <path d="M7.92669733,7.90706776 L7.9363352,7.90175234 L7.92669733,7.90706776 Z M14.1435761,4.0703972 L14.1566775,4.07814252 L13.4936221,4.48560748 L7.93648579,7.90175234 L0.0816207221,12.7292173 L0.100745873,20.7817757 L22.5200909,7.00268692 C23.539597,6.3759229 24.1601855,5.25801402 24.1576255,4.05399533 C24.1543125,2.84997664 23.528152,1.73495327 22.5060859,1.11320093 L20.7068158,0.0197429907 L14.1435761,4.0703972 Z" id="path-4"></path>
        <linearGradient x1="5.8097286%" y1="46.7225547%" x2="93.3633133%" y2="53.1658773%" id="linearGradient-6">
            <stop stop-color="#283789" offset="0%"></stop>
            <stop stop-color="#26A3DD" offset="100%"></stop>
        </linearGradient>
        <path d="M0.194413934,27.5159579 C0.197275177,28.7593107 0.864848353,29.9037967 1.94037455,30.5115771 C3.01605133,31.1189019 4.33342786,31.0947547 5.38561234,30.4471846 L7.02781524,29.4383178 L7.00869009,21.3857593 L7.00251583,18.8805257 L6.96757855,4.16121495 L0.129358303,0.0250584112 L0.194413934,27.5159579 Z" id="path-7"></path>
        <linearGradient x1="29.2522865%" y1="79.5653596%" x2="67.7604595%" y2="24.7295146%" id="linearGradient-9">
            <stop stop-color="#D31E3E" offset="0%"></stop>
            <stop stop-color="#D31E3E" offset="0.49%"></stop>
            <stop stop-color="#493292" offset="100%"></stop>
        </linearGradient>
        <path d="M0.0804159882,1.78127336 L9.63501001,7.67015187 C10.0866346,7.9482243 10.6522572,7.95931075 11.1138209,7.69946262 C11.5764387,7.43885514 11.8636171,6.94771028 11.8652737,6.41358645 L11.8684361,5.56797897 L8.94273979,3.77410047 L8.94273979,3.77804907 L7.73168103,3.03176402 L7.72776564,3.02933411 L7.73168103,3.03176402 L2.9091312,0.0593808411 L0.0804159882,1.78127336 Z" id="path-10"></path>
        <linearGradient x1="21.2576185%" y1="32.6381537%" x2="80.0760143%" y2="68.0320875%" id="linearGradient-12">
            <stop stop-color="#7F1419" offset="0%"></stop>
            <stop stop-color="#D24B27" offset="92.47%"></stop>
            <stop stop-color="#E93E39" offset="100%"></stop>
        </linearGradient>
        <path d="M7.09000963,5.56828271 L7.09407561,5.56600467 L7.09000963,5.56828271 Z M0.825694501,5.91621495 C0.385816033,6.18274533 0.116708597,6.66128505 0.114750905,7.17794393 C0.113094395,7.69490654 0.379039405,8.17557243 0.816658997,8.44559579 L1.58618278,8.9192757 L4.41489799,7.19738318 L4.4093261,7.19389019 L4.69469744,7.02075935 L7.08985904,5.56843458 L10.4750107,3.51607477 L10.4876604,0.058317757 L0.825694501,5.91621495 Z" id="path-13"></path>
        <linearGradient x1="93.5959003%" y1="53.6030799%" x2="7.04516652%" y2="46.6142174%" id="linearGradient-15">
            <stop stop-color="#E43B95" offset="0%"></stop>
            <stop stop-color="#E43B95" offset="5.94%"></stop>
            <stop stop-color="#D93C95" offset="26.61%"></stop>
            <stop stop-color="#CA3E96" offset="27.34%"></stop>
            <stop stop-color="#A84198" offset="48.67%"></stop>
            <stop stop-color="#75449A" offset="83.72%"></stop>
            <stop stop-color="#5F449B" offset="100%"></stop>
        </linearGradient>
        <path d="M0.804912841,0.236915888 L0.0969810795,0.665642523 L0.0843313734,4.12339953 L0.0807171717,5.19908879 L0.058128411,11.5194276 L2.9838247,13.3133061 L3.02614098,1.50866822 C3.02809867,0.974696262 2.74483561,0.481880841 2.28417549,0.217932243 C2.0596432,0.0891471963 1.80966092,0.0249065421 1.56013041,0.0249065421 C1.29825138,0.0250584112 1.03682412,0.0956775701 0.804912841,0.236915888" id="path-16"></path>
        <linearGradient x1="71.0719458%" y1="20.2836223%" x2="32.2419709%" y2="75.0433172%" id="linearGradient-18">
            <stop stop-color="#110F3C" offset="0%"></stop>
            <stop stop-color="#26A3DD" offset="100%"></stop>
        </linearGradient>
        <path d="M0.129207711,1.17349299 L5.81479879,4.67757009 C6.08375563,4.84310748 6.42032817,4.84994159 6.6950075,4.69503505 C6.9702892,4.53997664 7.14106023,4.24778037 7.14226496,3.92991822 L7.14422266,3.4267757 L5.40323157,2.35928738 L5.40323157,2.36171729 L4.68280069,1.9175 L4.67993945,1.91613318 L4.68280069,1.9175 L1.81237157,0.148679907 L0.129207711,1.17349299 Z" id="path-19"></path>
        <linearGradient x1="21.312419%" y1="32.6647508%" x2="80.150096%" y2="68.0706698%" id="linearGradient-21">
            <stop stop-color="#110F3C" offset="0%"></stop>
            <stop stop-color="#26A3DD" offset="100%"></stop>
        </linearGradient>
        <path d="M4.15723553,3.27991822 L4.15964499,3.27870327 L4.15723553,3.27991822 Z M0.429788821,3.48706776 C0.168361563,3.64546729 0.00783077039,3.93037383 0.00677662822,4.23760514 C0.00557189432,4.54544393 0.164144995,4.83141355 0.424668702,4.99193925 L0.882166403,5.27396028 L2.56533026,4.2491472 L2.56216784,4.24702103 L2.73203532,4.14405374 L4.15723553,3.27991822 L6.1718518,2.05843458 L6.17938139,0.00106308411 L0.429788821,3.48706776 Z" id="path-22"></path>
        <linearGradient x1="93.6447745%" y1="53.461728%" x2="7.13416957%" y2="46.4759133%" id="linearGradient-24">
            <stop stop-color="#E43B95" offset="0%"></stop>
            <stop stop-color="#E43B95" offset="5.94%"></stop>
            <stop stop-color="#D93C95" offset="26.61%"></stop>
            <stop stop-color="#CA3E96" offset="27.34%"></stop>
            <stop stop-color="#A84198" offset="48.67%"></stop>
            <stop stop-color="#75449A" offset="83.72%"></stop>
            <stop stop-color="#5F449B" offset="100%"></stop>
        </linearGradient>
        <path d="M0.576766358,0.201530374 L0.155711857,0.456670561 L0.14818227,2.51404206 L0.145622211,3.15432243 L0.132370138,6.91536215 L1.87336122,7.98285047 L1.89851004,0.958446262 C1.89941359,0.640584112 1.73105203,0.347324766 1.45682448,0.190292056 C1.3232496,0.11375 1.17461556,0.075478972 1.0262827,0.075478972 C0.870420247,0.075478972 0.714858982,0.117546729 0.576766358,0.201530374" id="path-25"></path>
        <linearGradient x1="71.0269085%" y1="20.2501046%" x2="32.1953872%" y2="75.0101033%" id="linearGradient-27">
            <stop stop-color="#7F1419" offset="0%"></stop>
            <stop stop-color="#D24B27" offset="92.47%"></stop>
            <stop stop-color="#E93E39" offset="100%"></stop>
        </linearGradient>
    </defs>
    <g id="Page-1" stroke="none" stroke-width="1" fill="none" fill-rule="evenodd">
        <g id="Homepage" transform="translate(-1442.000000, -1948.000000)">
            <g id="bafe-logo-outlined" transform="translate(1442.000000, 1948.000000)">
                <g id="Layer_1">
                    <g id="Clipped" transform="translate(87.192616, 0.000000)">
                        <mask id="mask-2" fill="white">
                            <use xlink:href="#path-1"></use>
                        </mask>
                        <g id="SVGID_1_"></g>
                        <polygon id="Shape" fill="url(#linearGradient-3)" fill-rule="nonzero" mask="url(#mask-2)" points="20.7560593 30.2084463 -7.66014995 13.6636682 6.99905222 -11.9429907 35.4152615 4.60178738"></polygon>
                    </g>
                    <g id="Clipped" transform="translate(94.119836, 14.123832)">
                        <mask id="mask-5" fill="white">
                            <use xlink:href="#path-4"></use>
                        </mask>
                        <g id="SVGID_4_"></g>
                        <polygon id="Shape" fill="url(#linearGradient-6)" fill-rule="nonzero" mask="url(#mask-5)" points="0.183571329 -1.55757009 25.4972896 0.107675234 24.0580843 22.3592407 -1.2559351 20.6938435"></polygon>
                    </g>
                    <g id="Clipped" transform="translate(87.192616, 5.467290)">
                        <mask id="mask-8" fill="white">
                            <use xlink:href="#path-7"></use>
                        </mask>
                        <g id="SVGID_7_"></g>
                        <polygon id="Shape" fill="url(#linearGradient-9)" fill-rule="nonzero" mask="url(#mask-8)" points="-14.1099941 21.530035 2.2566172 -3.18788551 21.2670171 9.6140771 4.90040576 34.3318458"></polygon>
                    </g>
                    <path d="M6.99317914,32.7393458 L6.99317914,40.8742173 C7.73198221,39.5869743 8.80811077,38.5354322 10.2196071,37.7218692 C11.4296118,37.0451402 12.9073685,36.7049533 14.6561903,36.7049533 C17.814852,36.7049533 20.4033734,38.0269743 22.4199474,40.6707126 C24.4363708,43.3142991 25.4447331,46.7381893 25.4447331,50.9408645 C25.4447331,55.1447547 24.4363708,58.5671262 22.4199474,61.2107126 C21.4115851,62.4991706 20.0503864,63.4317991 18.3363512,64.0069276 C16.6223161,64.5820561 14.9239424,64.871215 13.2445434,64.871215 C10.0179648,64.871215 7.02630932,64.0243925 4.2707817,62.329229 C1.51374815,60.635736 0.13688789,57.3816355 0.13688789,52.5676869 L0.13688789,29.2821963 L3.56495822,29.2821963 C4.50555422,29.2821963 5.31212357,29.6222313 5.98496745,30.2989603 C6.65600424,30.9773598 6.99317914,31.7909229 6.99317914,32.7393458 M18.4875453,50.6357593 C18.4875453,48.1955257 17.9833642,46.2982243 16.9751525,44.9414252 C15.9669408,43.5179556 14.5882735,42.805993 12.8411081,42.805993 C10.9585608,42.805993 9.51393425,43.4845444 8.50557197,44.8398248 C7.49736028,46.2632944 6.99317914,48.1955257 6.99317914,50.6357593 C6.99317914,53.4828505 7.46272418,55.5514603 8.40467551,56.8383995 C9.41303778,58.262021 10.8246847,58.9738318 12.6396164,58.9738318 C14.5206578,58.9738318 15.9669408,58.262021 16.9751525,56.8383995 C17.9832136,55.4150818 18.4875453,53.3476869 18.4875453,50.6357593" id="Shape" fill="#353333" fill-rule="nonzero"></path>
                    <path d="M43.7953905,63.2443925 C42.3837436,63.9911332 40.8870123,64.4471963 39.3085097,64.6172897 C37.7283506,64.7855607 36.3340217,64.8713668 35.1241676,64.8713668 C32.7041584,64.8713668 30.5868386,64.2104322 28.7719069,62.888715 C26.9569753,61.5668458 26.0496601,59.3803855 26.0496601,56.3297897 C26.0496601,53.4826986 26.871891,51.4490187 28.5198164,50.22875 C30.1660852,49.0086332 32.2662376,48.195222 34.8216288,47.7883645 C35.1572978,47.7883645 35.5604319,47.7376402 36.0316334,47.6358879 C36.5010279,47.5341355 37.0398451,47.45 37.6447721,47.3816589 C40.6019421,46.9751051 42.0813553,46.0948715 42.0813553,44.7379206 C42.0813553,43.7211565 41.5598562,43.0600701 40.5185143,42.754965 C39.4755159,42.4501636 38.5176019,42.297535 37.6447721,42.297535 C36.7026702,42.297535 35.8629707,42.4339136 35.1241676,42.7042407 C34.3837081,42.9760864 33.8463967,43.4843925 33.5108783,44.2294626 L26.755333,44.2294626 C27.0232357,42.1291121 27.9653376,40.4005374 29.5786269,39.0435864 C31.3934079,37.4849533 33.9804234,36.7049533 37.3423839,36.7049533 C41.1059727,36.7049533 43.9292666,37.3499416 45.8119645,38.6368808 C47.7607722,39.9938318 48.7360043,41.8908294 48.7360043,44.331215 L48.7360043,53.5844509 C48.7360043,56.2963785 48.2474847,58.4143458 47.2739091,59.9398715 C46.298677,61.4652453 45.1394218,62.5676636 43.7953905,63.2443925 L43.7953905,63.2443925 Z M42.1821012,50.7373598 C41.2399993,51.2124065 39.9292488,51.6525234 38.2498497,52.059229 L35.930737,52.5676869 C34.720883,52.907722 33.8463967,53.3478388 33.309236,53.8895561 C32.838185,54.6362967 32.6034125,55.3815187 32.6034125,56.1265888 C32.6034125,57.1435047 32.9058007,57.9569159 33.5108783,58.5671262 C34.1158053,59.1103621 34.9886351,59.3803855 36.1323793,59.3803855 C38.0134207,59.3803855 39.492834,58.8388201 40.5688119,57.7534112 C41.643284,56.6698248 42.1821012,55.178014 42.1821012,53.2793458 L42.1821012,50.7373598 Z" id="Shape" fill="#353333" fill-rule="nonzero"></path>
                    <path d="M49.7443665,64.3630607 L49.7443665,36.5017523 C49.7443665,34.0613668 50.3824237,32.2310397 51.660044,31.010771 C52.8700487,29.8589953 54.8519865,29.2821963 57.6090201,29.2821963 C58.2800569,29.2821963 58.8190247,29.3171262 59.2223094,29.3839486 C59.9611124,29.3839486 60.5329093,29.4188785 60.9361939,29.4855491 L60.9361939,35.0781308 L59.1214129,35.0781308 C58.179311,35.0781308 57.5081236,35.2148131 57.1048389,35.4849883 C56.767664,35.7565304 56.6006578,36.2983995 56.6006578,37.1118107 L56.6006578,38.9421379 L60.9361939,38.9421379 L60.9361939,40.4673598 C60.9361939,41.4842757 60.5991696,42.3151519 59.9279822,42.9587734 C59.255289,43.6037617 58.4816992,43.9245093 57.6091707,43.9245093 L56.6008084,43.9245093 L56.6008084,64.3629089 L49.7443665,64.3629089 L49.7443665,64.3630607 Z" id="Shape" fill="#353333" fill-rule="nonzero"></path>
                    <path d="M80.0935713,56.0249883 L85.1350815,56.0249883 C84.394622,58.8722313 82.982975,61.0424416 80.9002913,62.5327336 C78.815951,64.0930374 76.19445,64.8715187 73.0357883,64.8715187 C69.2041321,64.8715187 66.2123261,63.6179907 64.0618761,61.1091121 C61.9097695,58.6687266 60.8352975,55.1781659 60.8352975,50.6357593 C60.8352975,46.2983762 61.8766393,42.9078972 63.9609796,40.4673598 C66.1114296,37.9603037 69.1032357,36.7051051 72.9347413,36.7051051 C76.9678892,36.7051051 80.0935713,37.925222 82.3119382,40.3656075 C84.4623882,42.874486 85.5383662,46.3650467 85.5383662,50.8391121 L85.5383662,51.5510748 L85.5383662,51.9577804 C85.5383662,52.2978154 85.5038807,52.5344276 85.4376203,52.6695911 L67.9942781,52.6695911 C68.0603879,54.771764 68.564569,56.3302453 69.5066709,57.3471612 C70.3795007,58.4322664 71.6902511,58.9741355 73.4389224,58.9741355 C74.5811607,58.9741355 75.5563928,58.7372196 76.3629622,58.2621729 C76.5647551,58.1956542 76.7489288,58.076285 76.9175916,57.9061916 C77.0845978,57.7379206 77.2705786,57.550514 77.4722209,57.3470093 C77.5383307,57.1435047 77.7904213,56.8736332 78.2283421,56.5335981 C78.6647569,56.1950818 79.287002,56.0249883 80.0935713,56.0249883 M67.9942781,48.0936215 L78.2787903,48.0936215 C78.1434083,46.2632944 77.6737127,44.908014 76.8671433,44.0265654 C75.9928077,43.0779907 74.7496729,42.6029439 73.1365342,42.6029439 C71.6572716,42.6029439 70.4474175,43.0779907 69.5066709,44.0265654 C68.564569,44.976507 68.0603879,46.3316355 67.9942781,48.0936215" id="Shape" fill="#353333" fill-rule="nonzero"></path>
                    <g id="Clipped" transform="translate(92.162144, 39.789720)">
                        <mask id="mask-11" fill="white">
                            <use xlink:href="#path-10"></use>
                        </mask>
                        <g id="SVGID_10_"></g>
                        <polygon id="Shape" fill="url(#linearGradient-12)" fill-rule="nonzero" mask="url(#mask-11)" points="3.08893774 -5.12345794 15.2837061 2.07559579 8.85991433 13.1424533 -3.33500464 5.94324766"></polygon>
                    </g>
                    <g id="Clipped" transform="translate(90.656226, 32.651869)">
                        <mask id="mask-14" fill="white">
                            <use xlink:href="#path-13"></use>
                        </mask>
                        <g id="SVGID_13_"></g>
                        <polygon id="Shape" fill="url(#linearGradient-15)" fill-rule="nonzero" mask="url(#mask-14)" points="10.4354051 9.66115654 -0.509903626 8.8744743 0.165801504 -0.683714953 11.110809 0.10296729"></polygon>
                    </g>
                    <g id="Clipped" transform="translate(101.047056, 32.044393)">
                        <mask id="mask-17" fill="white">
                            <use xlink:href="#path-16"></use>
                        </mask>
                        <g id="SVGID_16_"></g>
                        <polygon id="Shape" fill="url(#linearGradient-18)" fill-rule="nonzero" mask="url(#mask-17)" points="9.1430268 4.19720794 2.09533345 14.7033645 -6.05740208 9.14146028 0.990291271 -1.36484813"></polygon>
                    </g>
                    <g id="Clipped" transform="translate(113.244987, 10.175234)">
                        <mask id="mask-20" fill="white">
                            <use xlink:href="#path-19"></use>
                        </mask>
                        <g id="SVGID_19_"></g>
                        <polygon id="Shape" fill="url(#linearGradient-21)" fill-rule="nonzero" mask="url(#mask-20)" points="1.9194423 -2.93563084 9.17660876 1.34859813 5.35383748 7.93425234 -1.90332898 3.65017523"></polygon>
                    </g>
                    <g id="Clipped" transform="translate(112.492028, 6.074766)">
                        <mask id="mask-23" fill="white">
                            <use xlink:href="#path-22"></use>
                        </mask>
                        <g id="SVGID_22_"></g>
                        <polygon id="Shape" fill="url(#linearGradient-24)" fill-rule="nonzero" mask="url(#mask-23)" points="6.1482089 5.71559579 -0.365335557 5.24738318 0.0367443841 -0.440420561 6.55013825 0.0277920561"></polygon>
                    </g>
                    <g id="Clipped" transform="translate(118.515698, 5.619159)">
                        <mask id="mask-26" fill="white">
                            <use xlink:href="#path-25"></use>
                        </mask>
                        <g id="SVGID_25_"></g>
                        <polygon id="Shape" fill="url(#linearGradient-27)" fill-rule="nonzero" mask="url(#mask-26)" points="5.53831236 2.55808411 1.34478422 8.80992991 -3.50637803 5.50024533 0.687150102 -0.751448598"></polygon>
                    </g>
                </g>
            </g>
        </g>
    </g>
</svg>