<?xml version="1.0" encoding="UTF-8" standalone="no"?>
<svg width="385px" height="313px" viewBox="0 0 385 313" version="1.1" xmlns="http://www.w3.org/2000/svg" xmlns:xlink="http://www.w3.org/1999/xlink">
    <!-- Generator: Sketch 43 (38999) - http://www.bohemiancoding.com/sketch -->
    <title>window</title>
    <desc>Created with Sketch.</desc>
    <defs>
        <polygon id="path-1" points="0 312.973394 384.163689 312.973394 384.163689 0.708151824 0 0.708151824"></polygon>
    </defs>
    <g id="Page-1" stroke="none" stroke-width="1" fill="none" fill-rule="evenodd">
        <g id="Homepage" transform="translate(-573.000000, -426.000000)">
            <g id="window" transform="translate(573.000000, 425.000000)">
                <g id="Group-9" transform="translate(0.000000, 6.224803)" fill="#1A1A1A">
                    <path d="M7.70989717,0.221458389 C10.5226735,0.221458389 12.9841003,1.72789045 14.3301157,3.9811008 L369.832584,3.9811008 C371.179589,1.72789045 373.640026,0.221458389 376.452802,0.221458389 C380.711555,0.221458389 384.163689,3.67506036 384.163689,7.9368468 C384.163689,12.1976428 380.711555,15.6522352 376.452802,15.6522352 C373.640026,15.6522352 371.179589,14.1448127 369.833573,11.8925928 L14.3301157,11.8925928 C12.9841003,14.1448127 10.5226735,15.6522352 7.70989717,15.6522352 C3.45213368,15.6522352 0,12.1976428 0,7.9368468 C0,3.67506036 3.45213368,0.221458389 7.70989717,0.221458389" id="Fill-1"></path>
                    <path d="M14.3316003,29.9032212 L192.081844,29.9032212 C177.613168,84.7171436 140.985713,182.205384 64.3430013,210.088739 L64.3430013,303.58954 C60.3326671,308.349509 51.912153,308.002861 47.5564075,303.58954 C43.6272301,308.002861 33.6439524,308.002861 30.5797879,303.58954 C27.2107905,308.436666 17.1819859,307.829537 14.3316003,303.58954 L14.3316003,29.9032212 Z" id="Fill-3"></path>
                    <path d="M369.832386,29.9032212 L192.082141,29.9032212 C206.549828,84.7171436 243.178272,182.205384 319.820985,210.088739 L319.820985,303.58954 C323.831319,308.349509 332.250843,308.002861 336.607578,303.58954 C340.535766,308.002861 350.519044,308.002861 353.584198,303.58954 C356.953195,308.436666 366.982,307.829537 369.832386,303.58954 L369.832386,29.9032212 Z" id="Fill-5"></path>
                    <polygon id="Fill-7" points="21.7727892 280.993653 362.391889 280.993653 362.391889 38.3986661 21.7727892 38.3986661"></polygon>
                </g>
                <polygon id="Fill-10" fill="#F4EFDB" points="21.7727892 280.860937 362.391889 280.860937 362.391889 38.2659495 21.7727892 38.2659495"></polygon>
                <polygon id="Fill-11" fill="#DCF8F6" points="37.586491 265.034982 346.578188 265.034982 346.578188 54.0899239 37.586491 54.0899239"></polygon>
                <g id="Group-85" transform="translate(0.000000, 0.282270)">
                    <path d="M116.84364,126.194636 C132.555401,126.194636 145.292072,134.972747 145.292072,145.801032 C145.292072,152.014941 141.096661,157.553381 134.551661,161.145643 C134.315118,171.833288 121.67247,180.446989 106.108177,180.446989 C99.3028817,180.446989 93.0577661,178.799917 88.1626247,176.053476 C83.4288072,178.476049 77.5667121,179.90919 71.2176761,179.90919 C55.5059152,179.90919 42.7692442,171.132069 42.7692442,160.303784 C42.7692442,152.809259 48.8718406,146.298224 57.8376889,142.999128 C56.885581,141.040073 56.3689486,138.94434 56.3689486,136.764421 C56.3689486,125.936136 69.1056195,117.159015 84.8183702,117.159015 C95.2965064,117.159015 104.450401,121.063259 109.387111,126.876046 C111.763422,126.432337 114.263447,126.194636 116.84364,126.194636 Z" id="Fill-12" fill="#EFFCFB"></path>
                    <path d="M263.977081,73.4276189 C279.688842,73.4276189 292.425513,82.2047398 292.425513,93.033025 C292.425513,99.2469334 288.230102,104.785374 281.685102,108.377635 C281.448559,119.06528 268.805911,127.678982 253.241618,127.678982 C246.436323,127.678982 240.191207,126.03191 235.296066,123.285469 C230.562248,125.709032 224.700153,127.142173 218.351117,127.142173 C202.639356,127.142173 189.902685,118.365052 189.902685,107.535776 C189.902685,100.042242 196.005281,93.5302169 204.97212,90.2311208 C204.020012,88.2720658 203.502389,86.1763326 203.502389,83.9974039 C203.502389,73.1681283 216.24005,64.3910074 231.951811,64.3910074 C242.429947,64.3910074 251.584832,68.2952514 256.520551,74.1080389 C258.896862,73.6653202 261.396888,73.4276189 263.977081,73.4276189" id="Fill-14" fill="#EFFCFB"></path>
                    <mask id="mask-2" fill="white">
                        <use xlink:href="#path-1"></use>
                    </mask>
                    <g id="Clip-17"></g>
                    <polygon id="Fill-16" fill="#CAEDEC" mask="url(#mask-2)" points="236.612686 264.752711 346.577198 264.752711 346.577198 88.7596506 236.612686 88.7596506"></polygon>
                    <polygon id="Fill-18" fill="#DCF8F6" mask="url(#mask-2)" points="276.715039 144.76307 293.412558 144.76307 293.412558 106.909136 276.715039 106.909136"></polygon>
                    <polygon id="Fill-19" fill="#DCF8F6" mask="url(#mask-2)" points="331.603766 144.76307 346.578188 144.76307 346.578188 106.909136 331.603766 106.909136"></polygon>
                    <polygon id="Fill-20" fill="#DCF8F6" mask="url(#mask-2)" points="249.27018 199.211527 265.967699 199.211527 265.967699 161.356602 249.27018 161.356602"></polygon>
                    <polygon id="Fill-21" fill="#DCF8F6" mask="url(#mask-2)" points="304.158907 199.211527 320.856427 199.211527 320.856427 161.356602 304.158907 161.356602"></polygon>
                    <polygon id="Fill-22" fill="#DCF8F6" mask="url(#mask-2)" points="331.603766 199.211527 346.578188 199.211527 346.578188 161.356602 331.603766 161.356602"></polygon>
                    <polygon id="Fill-23" fill="#DCF8F6" mask="url(#mask-2)" points="249.27018 253.658993 265.967699 253.658993 265.967699 215.804069 249.27018 215.804069"></polygon>
                    <polygon id="Fill-24" fill="#DCF8F6" mask="url(#mask-2)" points="331.603766 253.658993 346.578188 253.658993 346.578188 215.804069 331.603766 215.804069"></polygon>
                    <polygon id="Fill-25" fill="#CAEDEC" mask="url(#mask-2)" points="84.8237147 264.752711 236.612686 264.752711 236.612686 173.023775 84.8237147 173.023775"></polygon>
                    <polygon id="Fill-26" fill="#DCF8F6" mask="url(#mask-2)" points="97.4812082 264.753702 114.178728 264.753702 114.178728 241.213349 97.4812082 241.213349"></polygon>
                    <polygon id="Fill-27" fill="#DCF8F6" mask="url(#mask-2)" points="179.814794 264.753702 196.512314 264.753702 196.512314 241.213349 179.814794 241.213349"></polygon>
                    <polygon id="Fill-28" fill="#DCF8F6" mask="url(#mask-2)" points="207.258663 264.753702 223.955193 264.753702 223.955193 241.213349 207.258663 241.213349"></polygon>
                    <polygon id="Fill-29" fill="#DCF8F6" mask="url(#mask-2)" points="124.926067 224.619816 141.623586 224.619816 141.623586 186.765882 124.926067 186.765882"></polygon>
                    <polygon id="Fill-30" fill="#DCF8F6" mask="url(#mask-2)" points="152.369936 224.619816 169.067455 224.619816 169.067455 186.765882 152.369936 186.765882"></polygon>
                    <polygon id="Fill-31" fill="#DCF8F6" mask="url(#mask-2)" points="207.258663 224.619816 223.955193 224.619816 223.955193 186.765882 207.258663 186.765882"></polygon>
                    <polygon id="Fill-32" fill="#CAEDEC" mask="url(#mask-2)" points="37.586491 264.752711 84.8247044 264.752711 84.8247044 53.8076536 37.586491 53.8076536"></polygon>
                    <polygon id="Fill-33" fill="#DCF8F6" mask="url(#mask-2)" points="37.586491 257.634547 44.7233419 257.634547 44.7233419 219.780614 37.586491 219.780614"></polygon>
                    <polygon id="Fill-34" fill="#DCF8F6" mask="url(#mask-2)" points="55.4696915 257.634547 72.1672108 257.634547 72.1672108 219.780614 55.4696915 219.780614"></polygon>
                    <polygon id="Fill-35" fill="#DCF8F6" mask="url(#mask-2)" points="37.586491 203.188072 44.7233419 203.188072 44.7233419 165.333147 37.586491 165.333147"></polygon>
                    <polygon id="Fill-36" fill="#DCF8F6" mask="url(#mask-2)" points="37.586491 148.739615 44.7233419 148.739615 44.7233419 110.884691 37.586491 110.884691"></polygon>
                    <polygon id="Fill-37" fill="#DCF8F6" mask="url(#mask-2)" points="55.4696915 148.739615 72.1672108 148.739615 72.1672108 110.884691 55.4696915 110.884691"></polygon>
                    <polygon id="Fill-38" fill="#DCF8F6" mask="url(#mask-2)" points="55.4696915 94.2911582 72.1672108 94.2911582 72.1672108 56.4362339 55.4696915 56.4362339"></polygon>
                    <polygon id="Fill-39" fill="#DCF8F6" mask="url(#mask-2)" points="37.586491 94.2911582 45.7684833 94.2911582 45.7684833 56.4362339 37.586491 56.4362339"></polygon>
                    <polygon id="Fill-40" fill="#F4EFDB" mask="url(#mask-2)" points="130.040925 280.578667 145.854627 280.578667 145.854627 37.9836792 130.040925 37.9836792"></polygon>
                    <polygon id="Fill-41" fill="#58AFA9" mask="url(#mask-2)" points="238.309062 280.578667 254.122763 280.578667 254.122763 37.9836792 238.309062 37.9836792"></polygon>
                    <polygon id="Fill-42" fill="#F4EFDB" mask="url(#mask-2)" points="21.7717995 167.19316 362.3909 167.19316 362.3909 151.368195 21.7717995 151.368195"></polygon>
                    <polygon id="Fill-43" fill="#D5BE94" mask="url(#mask-2)" points="37.5860951 53.8077526 29.6792442 45.8952702 29.6792442 159.280777 37.5860951 151.368294 37.5860951 104.142986 37.5860951 101.033061"></polygon>
                    <polygon id="Fill-44" fill="#D5BE94" mask="url(#mask-2)" points="37.5860951 53.8077526 29.6792442 45.8952702 137.94738 45.8952702 130.04053 53.8077526"></polygon>
                    <polygon id="Fill-45" fill="#D5BE94" mask="url(#mask-2)" points="145.854231 53.8077526 137.94738 45.8952702 137.94738 159.280777 145.854231 151.368294 145.854231 104.142986 145.854231 101.033061"></polygon>
                    <polygon id="Fill-46" fill="#D5BE94" mask="url(#mask-2)" points="145.854231 53.8077526 137.94738 45.8952702 246.216506 45.8952702 238.309656 53.8077526"></polygon>
                    <polygon id="Fill-47" fill="#4A9E98" mask="url(#mask-2)" points="254.122467 53.8077526 246.216605 45.8952702 246.216605 159.280777 254.122467 151.368294 254.122467 104.142986 254.122467 101.033061"></polygon>
                    <polygon id="Fill-48" fill="#4A9E98" mask="url(#mask-2)" points="254.122467 53.8077526 246.216605 45.8952702 354.483752 45.8952702 346.577891 53.8077526"></polygon>
                    <polygon id="Fill-49" fill="#D5BE94" mask="url(#mask-2)" points="37.5860951 167.192764 29.6792442 159.281272 29.6792442 272.665788 37.5860951 264.753306 37.5860951 217.527997 37.5860951 214.418072"></polygon>
                    <polygon id="Fill-50" fill="#D5BE94" mask="url(#mask-2)" points="37.5860951 167.192764 29.6792442 159.281272 137.94738 159.281272 130.04053 167.192764"></polygon>
                    <polygon id="Fill-51" fill="#D5BE94" mask="url(#mask-2)" points="145.854231 167.192764 137.94738 159.281272 137.94738 272.665788 145.854231 264.753306 145.854231 217.527997 145.854231 214.418072"></polygon>
                    <polygon id="Fill-52" fill="#D5BE94" mask="url(#mask-2)" points="145.854231 167.192764 137.94738 159.281272 246.216506 159.281272 238.309656 167.192764"></polygon>
                    <polygon id="Fill-53" fill="#4A9E98" mask="url(#mask-2)" points="254.122467 167.192764 246.216605 159.281272 354.483752 159.281272 346.577891 167.192764"></polygon>
                    <polygon id="Fill-54" fill="#4A9E98" mask="url(#mask-2)" points="254.122467 167.192764 246.216605 159.281272 246.216605 272.665788 254.122467 264.753306 254.122467 217.527997 254.122467 214.418072"></polygon>
                    <path d="M7.70989717,0.70795374 C10.5226735,0.70795374 12.9841003,2.21537622 14.3301157,4.46759615 L369.832584,4.46759615 C371.179589,2.21537622 373.640026,0.70795374 376.452802,0.70795374 C380.711555,0.70795374 384.163689,4.16155571 384.163689,8.42334215 C384.163689,12.6851286 380.711555,16.139721 376.452802,16.139721 C373.640026,16.139721 371.179589,14.6313081 369.833573,12.3790881 L14.3301157,12.3790881 C12.9841003,14.6313081 10.5226735,16.139721 7.70989717,16.139721 C3.45213368,16.139721 0,12.6851286 0,8.42334215 C0,4.16155571 3.45213368,0.70795374 7.70989717,0.70795374" id="Fill-55" fill="#E08691" mask="url(#mask-2)"></path>
                    <polygon id="Fill-56" fill="#F4EFDB" mask="url(#mask-2)" points="238.309062 280.578667 254.122763 280.578667 254.122763 37.9836792 238.309062 37.9836792"></polygon>
                    <polygon id="Fill-57" fill="#D5BE94" mask="url(#mask-2)" points="346.577891 53.8077526 354.484742 45.8952702 246.216605 45.8952702 254.122467 53.8077526"></polygon>
                    <polygon id="Fill-58" fill="#D5BE94" mask="url(#mask-2)" points="254.122467 53.8077526 246.216605 45.8952702 246.216605 159.280777 254.122467 151.368294 254.122467 104.142986 254.122467 101.033061"></polygon>
                    <polygon id="Fill-59" fill="#D5BE94" mask="url(#mask-2)" points="346.577891 167.192764 354.484742 159.281272 246.216605 159.281272 254.122467 167.192764"></polygon>
                    <polygon id="Fill-60" fill="#D5BE94" mask="url(#mask-2)" points="254.122467 167.192764 246.216605 159.281272 246.216605 272.665788 254.122467 264.753306 254.122467 217.527997 254.122467 214.418072"></polygon>
                    <path d="M369.832386,27.3159414 L192.081152,27.3159414 C206.549828,82.1298639 243.177283,179.618105 319.820985,207.501459 L319.820985,301.00127 C323.831319,305.762229 332.250843,305.415581 336.607578,301.00127 C340.535766,305.415581 350.519044,305.415581 353.583208,301.00127 C356.953195,305.848396 366.98101,305.242258 369.832386,301.00127 L369.832386,27.3159414 Z" id="Fill-61" fill="#205B8B" mask="url(#mask-2)"></path>
                    <polygon id="Fill-62" fill="#0A447F" mask="url(#mask-2)" points="360.972635 37.9836792 369.832584 37.9836792 369.832584 4.46779424 360.972635 4.46779424"></polygon>
                    <polygon id="Fill-63" fill="#0A447F" mask="url(#mask-2)" points="327.194576 37.9836792 336.054524 37.9836792 336.054524 4.46779424 327.194576 4.46779424"></polygon>
                    <polygon id="Fill-64" fill="#0A447F" mask="url(#mask-2)" points="293.416517 37.9836792 302.276465 37.9836792 302.276465 4.46779424 293.416517 4.46779424"></polygon>
                    <polygon id="Fill-65" fill="#0A447F" mask="url(#mask-2)" points="259.638458 37.9836792 268.497416 37.9836792 268.497416 4.46779424 259.638458 4.46779424"></polygon>
                    <polygon id="Fill-66" fill="#0A447F" mask="url(#mask-2)" points="225.860398 37.9836792 234.719357 37.9836792 234.719357 4.46779424 225.860398 4.46779424"></polygon>
                    <polygon id="Fill-67" fill="#0A447F" mask="url(#mask-2)" points="192.082339 27.3158424 200.942288 27.3158424 200.942288 4.46779424 192.082339 4.46779424"></polygon>
                    <path d="M355.484356,302.807107 L355.484356,212.686616 L351.682852,212.686616 L351.682852,302.750653 C352.452852,302.27624 353.103096,301.692882 353.583109,301.001567 C354.084896,301.721604 354.73415,302.3218 355.484356,302.807107" id="Fill-68" fill="#0D3B60" mask="url(#mask-2)"></path>
                    <path d="M338.50744,302.552667 L338.50744,212.686715 L334.705936,212.686715 L334.705936,302.522955 C335.395769,302.086178 336.037105,301.579082 336.607183,301.001666 C337.13965,301.599881 337.784946,302.117872 338.50744,302.552667" id="Fill-69" fill="#0D3B60" mask="url(#mask-2)"></path>
                    <path d="M318.59809,27.3159414 C318.59809,58.1507537 319.990622,93.0304499 325.277692,125.815403 C330.546946,158.495372 339.677087,189.124176 355.142409,211.60973 L352.024799,213.763898 C336.200211,190.756392 326.886972,159.59375 321.53656,126.409657 C316.201985,93.3315382 314.796586,58.2715852 314.796586,27.3159414 L318.59809,27.3159414 Z" id="Fill-70" fill="#0D3B60" mask="url(#mask-2)"></path>
                    <path d="M261.538616,27.3159414 C261.538616,56.3511567 270.401533,90.3612622 283.667703,122.313271 C298.401623,157.797124 318.53742,190.687063 337.987343,211.386885 L335.226032,213.986743 C315.476225,192.968005 295.065287,159.654166 280.164104,123.770182 C266.718796,91.38833 257.737112,56.8671666 257.737112,27.3159414 L261.538616,27.3159414 Z" id="Fill-71" fill="#0D3B60" mask="url(#mask-2)"></path>
                    <polygon id="Fill-72" fill="#0D3B60" mask="url(#mask-2)" points="317.825913 216.429025 374.583226 216.429025 374.583226 206.910078 317.825913 206.910078"></polygon>
                    <path d="M14.3311054,27.3159414 L192.08135,27.3159414 C177.613663,82.1298639 140.985219,179.618105 64.3425064,207.501459 L64.3425064,301.00127 C60.3321722,305.762229 51.9126478,305.415581 47.5559126,301.00127 C43.6267352,305.415581 33.6434576,305.415581 30.5792931,301.00127 C27.2102956,305.848396 17.181491,305.242258 14.3311054,301.00127 L14.3311054,27.3159414 Z" id="Fill-73" fill="#205B8B" mask="url(#mask-2)"></path>
                    <polygon id="Fill-74" fill="#0A447F" mask="url(#mask-2)" points="14.3301157 37.9836792 23.1900643 37.9836792 23.1900643 4.46779424 14.3301157 4.46779424"></polygon>
                    <polygon id="Fill-75" fill="#0A447F" mask="url(#mask-2)" points="48.1091645 37.9836792 56.9691131 37.9836792 56.9691131 4.46779424 48.1091645 4.46779424"></polygon>
                    <polygon id="Fill-76" fill="#0A447F" mask="url(#mask-2)" points="81.8872237 37.9836792 90.7471722 37.9836792 90.7471722 4.46779424 81.8872237 4.46779424"></polygon>
                    <polygon id="Fill-77" fill="#0A447F" mask="url(#mask-2)" points="115.665283 37.9836792 124.525231 37.9836792 124.525231 4.46779424 115.665283 4.46779424"></polygon>
                    <polygon id="Fill-78" fill="#0A447F" mask="url(#mask-2)" points="149.443342 37.9836792 158.30329 37.9836792 158.30329 4.46779424 149.443342 4.46779424"></polygon>
                    <polygon id="Fill-79" fill="#0A447F" mask="url(#mask-2)" points="183.221401 27.3158424 192.08135 27.3158424 192.08135 4.46779424 183.221401 4.46779424"></polygon>
                    <path d="M28.679135,302.807107 L28.679135,212.686616 L32.4796491,212.686616 L32.4796491,302.750653 C31.7096491,302.27624 31.0594049,301.692882 30.579392,301.001567 C30.0785951,301.721604 29.4293406,302.3218 28.679135,302.807107" id="Fill-80" fill="#0D3B60" mask="url(#mask-2)"></path>
                    <path d="M45.6555566,302.552667 L45.6555566,212.686715 L49.4560707,212.686715 L49.4560707,302.522955 C48.7662378,302.086178 48.1258907,301.579082 47.5558136,301.001666 C47.0233458,301.599881 46.3790398,302.117872 45.6555566,302.552667" id="Fill-81" fill="#0D3B60" mask="url(#mask-2)"></path>
                    <path d="M65.565401,27.3159414 C65.565401,58.1507537 64.1718792,93.0304499 58.8857995,125.815403 C53.6155553,158.495372 44.4854139,189.124176 29.0210823,211.60973 L32.1386915,213.763898 C47.9622905,190.756392 57.2765193,159.59375 62.6269306,126.409657 C67.9605167,93.3315382 69.3659152,58.2715852 69.3659152,27.3159414 L65.565401,27.3159414 Z" id="Fill-82" fill="#0D3B60" mask="url(#mask-2)"></path>
                    <path d="M122.624875,27.3159414 C122.624875,56.3511567 113.761958,90.3612622 100.494798,122.313271 C85.7608779,157.797124 65.6260707,190.687063 46.1751581,211.386885 L48.9364692,213.986743 C68.6862763,192.968005 89.0982044,159.654166 103.998397,123.770182 C117.443706,91.38833 126.425389,56.8671666 126.425389,27.3159414 L122.624875,27.3159414 Z" id="Fill-83" fill="#0D3B60" mask="url(#mask-2)"></path>
                    <polygon id="Fill-84" fill="#0D3B60" mask="url(#mask-2)" points="9.58046272 216.429025 66.3367866 216.429025 66.3367866 206.910078 9.58046272 206.910078"></polygon>
                </g>
            </g>
        </g>
    </g>
</svg>