<?xml version="1.0" encoding="UTF-8" standalone="no"?>
<svg width="565px" height="333px" viewBox="0 0 565 333" version="1.1" xmlns="http://www.w3.org/2000/svg" xmlns:xlink="http://www.w3.org/1999/xlink">
    <!-- Generator: Sketch 43 (38999) - http://www.bohemiancoding.com/sketch -->
    <title>wakeup</title>
    <desc>Created with Sketch.</desc>
    <defs></defs>
    <g id="Page-1" stroke="none" stroke-width="1" fill="none" fill-rule="evenodd">
        <g id="Homepage" transform="translate(-1021.000000, -544.000000)">
            <g id="wakeup" transform="translate(1020.000000, 543.000000)">
                <g id="Group">
                    <g id="Layer_1">
                        <polyline id="Shape" fill="#755230" fill-rule="nonzero" points="479.903109 330.528728 479.903109 139.445782 256.526313 139.445782 256.526313 330.528728"></polyline>
                        <polyline id="Shape" fill="#8A6038" fill-rule="nonzero" points="468.146238 330.528728 468.146238 139.445782 244.770193 139.445782 244.770193 330.528728"></polyline>
                        <g id="Group" transform="translate(0.770270, 213.086705)" fill-rule="nonzero">
                            <path d="M462.67412,0.317795761 L214.60812,0.317795761 C212.010995,0.317795761 209.905522,2.42019461 209.905522,5.01352794 L209.905522,44.7927129 C209.905522,47.3860462 212.010995,49.4891946 214.60812,49.4891946 L462.67337,49.4891946 C465.270495,49.4891946 467.375968,47.3860462 467.375968,44.7927129 L467.375968,5.01352794 C467.375968,2.42019461 465.271246,0.317795761 462.67412,0.317795761 Z" id="Shape" fill="#E6E6E6"></path>
                            <path d="M0.638022113,5.01277842 L0.638022113,44.7919634 C0.638022113,47.3852967 2.74349509,49.4884451 5.34062039,49.4884451 L219.311469,49.4884451 C221.908595,49.4884451 224.014068,47.3852967 224.014068,44.7919634 L224.014068,5.01277842 C224.014068,2.41944509 221.908595,0.317046243 219.311469,0.317046243 L5.34062039,0.317046243 C2.74349509,0.317795761 0.638022113,2.42019461 0.638022113,5.01277842 Z" id="Shape" fill="#F2F2F2"></path>
                        </g>
                        <polyline id="Shape" fill="#8A6038" fill-rule="nonzero" points="224.783587 330.528728 224.783587 257.879418 1.40829238 257.879418 1.40829238 330.528728"></polyline>
                        <g id="Group" transform="translate(276.996314, 0.973025)" fill-rule="nonzero">
                            <path d="M15.0197912,138.472757 C15.5399668,156.024227 15.1398894,187.689877 6.03493857,195.482618 L111.668882,212.431476 C126.417701,195.320723 128.292736,156.530902 128.32276,138.472757 L15.0197912,138.472757 Z" id="Shape" fill="#D9D9D9"></path>
                            <g id="Shape">
                                <path d="M9.74747666,126.613879 C9.74747666,126.613879 -2.7547543,5.58391137 92.6445639,45.2491696 C92.6445639,45.2491696 122.750951,67.1238613 123.443017,128.887917 C30.6723501,147.615382 9.74747666,126.613879 9.74747666,126.613879 Z" fill="#F7D8BA"></path>
                                <path d="M3.61721007,0.655078998 C3.61721007,0.655078998 -24.7995442,74.9465838 86.9128735,60.2485299 L94.8250983,85.1820058 C94.8250983,85.1820058 104.947882,74.8476474 108.03666,85.8108516 C111.122435,96.7740559 97.4575025,93.1186551 97.4575025,93.1186551 C97.4575025,93.1186551 109.708278,121.637077 123.443768,128.887917 C123.443768,128.887917 159.250319,13.9740193 103.702613,25.6177861 C103.702613,25.6177861 101.546849,4.82389981 70.5689988,3.89374759 C38.4644767,2.92911753 18.4868784,41.5143198 3.61721007,0.655078998 Z" fill="#240900"></path>
                            </g>
                            <path d="M9.74747666,126.613879 C9.74747666,126.613879 14.1062936,184.550145 1.33234029,195.482618 L106.965533,212.431476 C126.529543,189.735312 123.443017,128.887917 123.443017,128.887917 C123.443017,128.887917 47.796113,139.55806 9.74747666,126.613879 Z" id="Shape" fill="#58CBC0"></path>
                        </g>
                        <rect id="Rectangle-path" fill="#755230" fill-rule="nonzero" x="224.783587" y="257.879418" width="243.362651" height="72.6500597"></rect>
                        <path d="M240.792688,223.382089 L240.792688,238.532102 C240.792688,240.177295 242.128781,241.511437 243.77713,241.511437 L378.057516,241.511437 C378.065773,242.357644 378.751084,243.046451 379.605283,243.046451 L401.705618,243.046451 C402.562819,243.046451 403.257138,242.352397 403.257138,241.497197 L403.257138,238.119118 C403.257138,232.723335 402.313615,227.831229 400.560181,223.382838 L240.792688,223.382838 L240.792688,223.382089 Z" id="Shape" fill="#E6E6E6" fill-rule="nonzero"></path>
                        <path d="M237.716671,176.620391 C315.897649,176.620391 403.256387,182.294994 403.256387,234.597881 C403.256387,236.406468 402.103443,237.9902 400.292211,237.9902 L243.77638,237.9902 C242.128781,237.9902 240.791937,236.656058 240.791937,235.010116 L240.791937,217.099626 C240.824964,215.067682 239.184122,213.403751 237.149206,213.403751 L49.6104877,213.403751 C49.6104877,213.404501 72.7316585,176.620391 237.716671,176.620391 Z" id="Shape" fill="#91C8EC" fill-rule="nonzero"></path>
                        <path d="M237.125937,176.62264 C219.970649,176.632383 204.363877,177.04237 190.150996,177.764156 C382.848687,178.61336 375.762138,235.51679 375.762138,235.51679 L375.701338,237.936235 C375.700587,237.954224 375.705091,237.972212 375.705091,237.9902 L400.292211,237.9902 C400.506136,237.9902 400.710303,237.964717 400.904713,237.921994 L400.904713,234.597131 C400.904713,182.686243 314.852794,176.709584 237.125937,176.62264 Z" id="Shape" fill="#E6E6E6" fill-rule="nonzero"></path>
                        <path d="M237.716671,176.620391 C220.405254,176.620391 204.673881,177.030378 190.349909,177.755162 C385.262662,178.186135 378.113812,235.51679 378.113812,235.51679 L378.052262,237.936235 C378.030494,238.807175 378.731568,239.525214 379.603781,239.525214 L401.704117,239.525214 C402.561318,239.525214 403.255636,238.83116 403.255636,237.97521 L403.255636,234.597881 C403.256387,182.294994 315.897649,176.620391 237.716671,176.620391 Z" id="Shape" fill="#F2F2F2" fill-rule="nonzero"></path>
                        <path d="M323.081027,203.475632 C322.515064,202.464532 323.381273,201.481164 324.157408,201.023958 C323.468344,201.525385 322.154769,202.229183 321.338101,201.053938 C320.39608,199.698809 321.925081,198.24999 322.499301,197.777794 L322.489543,197.762803 C321.901812,198.140561 320.257967,199.039983 319.47958,197.884225 C318.707948,196.738212 320.183656,195.535985 320.78715,195.111757 C320.109345,195.538233 318.252326,196.529846 317.371104,195.102013 C316.712816,194.03395 319.239383,192.694561 319.239383,192.694561 C365.797733,175.706728 386.168654,137.427329 386.168654,137.427329 L394.847256,141.988898 C371.210413,183.450002 330.677994,200.542017 326.160797,203.049906 C326.161548,203.049906 323.684521,204.432767 323.081027,203.475632 Z" id="Shape" fill="#D9D9D9" fill-rule="nonzero"></path>
                        <g id="Group" transform="translate(322.783784, 136.635838)" fill-rule="nonzero">
                            <path d="M72.0642224,5.35380925 L63.4576794,0.657327553 C63.4576794,0.657327553 61.5150897,4.16282466 57.51957,9.48290559 L66.1824091,14.3847553 C68.221828,11.5111021 70.1966941,8.51377842 72.0642224,5.35380925 Z" id="Shape" fill="#58CBC0"></path>
                            <path d="M0.156878378,63.4774547 C0.266468059,63.4114971 0.369302211,63.3440405 0.460126536,63.2795819 C0.359544226,63.3372948 0.257460688,63.4040019 0.156878378,63.4774547 Z" id="Shape" fill="#F7D8BA"></path>
                        </g>
                        <path d="M380.303354,146.118744 C371.128596,158.338141 351.073684,180.183601 318.457243,191.511071 C318.457243,191.511071 315.909658,192.809987 316.552184,193.889293 C317.410887,195.329867 319.282168,194.368235 319.966729,193.951503 C319.356479,194.366736 317.862006,195.545728 318.616373,196.703734 C319.376746,197.871484 321.033351,196.997545 321.627838,196.628782 L321.636845,196.643773 C321.05587,197.106975 319.50435,198.532559 320.424603,199.901929 C321.118921,200.934765 322.209564,200.55326 322.941413,200.113293 C323.041995,200.039091 323.144079,199.972383 323.244661,199.91542 C323.153837,199.979879 323.051002,200.047335 322.941413,200.113293 C322.259104,200.611723 321.650356,201.461676 322.130749,202.349106 C322.71848,203.315985 325.216525,201.972098 325.216525,201.972098 C329.422216,199.722794 364.496168,185.508179 388.966943,151.020593 L380.303354,146.118744 Z" id="Shape" fill="#F7D8BA" fill-rule="nonzero"></path>
                        <g id="Group" transform="translate(214.695332, 100.658960)" fill-rule="nonzero">
                            <path d="M12.7544373,3.01756069 C12.7544373,3.01756069 12.2335111,0.308801541 10.9334472,0.573381503 C9.28885135,0.907666667 9.77750123,3.08876493 10.0079398,3.85552216 C9.75948649,3.16071869 8.99686241,1.41883815 7.68328747,1.85280925 C6.35995455,2.29127746 6.78630344,4.11410597 6.99197174,4.78042775 L6.97620885,4.78567437 C6.67446192,4.10736031 5.68740418,2.24630636 4.12762776,2.78820809 C2.77351966,3.25815607 3.10003686,4.71072254 3.39878133,5.50821002 C3.0287285,4.76318882 2.55358968,3.60518304 1.42616708,3.87800771 C0.167386978,4.18231214 0.9059914,6.89182081 0.9059914,6.89182081 C2.08145332,11.7869249 9.7129484,64.8490732 68.2676155,42.133422 L64.2420713,31.1642216 C49.3476327,36.5802408 18.2504349,42.7795067 12.7544373,3.01756069 Z" id="Shape" fill="#F7D8BA"></path>
                            <path d="M72.1978317,27.7359249 C72.1978317,27.7359249 69.0685209,29.4088497 64.2420713,31.1642216 L68.2676155,42.133422 C69.7313133,41.5652871 71.2182801,40.9641734 72.7472813,40.2993507 L72.1978317,27.7359249 Z" id="Shape" fill="#82BACE"></path>
                        </g>
                        <g id="Group" transform="translate(278.497543, 128.391137)" fill-rule="nonzero">
                            <path d="M8.39562039,0.00374759152 C8.39562039,0.00374759152 8.08336486,0.170890173 7.50614251,0.453458574 L5.95162039,13.8106243 C6.93642629,13.4163776 7.92948894,13.0093892 8.94507002,12.5671734 L8.39562039,0.00374759152 Z" id="Shape" fill="#FFFFFF"></path>
                            <path d="M0.439859951,3.43204432 L4.46540418,14.4012447 C4.9563059,14.2108671 5.45396314,14.0099961 5.95086978,13.8106243 L7.50614251,0.452709056 C6.25336732,1.06731407 3.7448145,2.23056647 0.439859951,3.43204432 Z" id="Shape" fill="#58CBC0"></path>
                        </g>
                        <polygon id="Shape" fill="#D9D9D9" fill-rule="nonzero" points="413.267329 220.231863 413.267329 226.925062 418.966743 226.925062 418.966743 235.955258 418.966743 261.428387 418.966743 266.249289 418.966743 293.902767 418.966743 300.752615 418.966743 330.528728 511.654092 330.528728 557.676504 333.226245 557.676504 253.748073 557.676504 226.925062 558.672569 226.925062 558.672569 220.231863"></polygon>
                        <g id="Group" transform="translate(415.109337, 216.834297)" fill-rule="nonzero">
                            <g transform="translate(6.004914, 6.745665)">
                                <rect id="Rectangle-path" fill="#8A6038" x="0.203416462" y="0.647583815" width="92.6865983" height="39.3242274"></rect>
                                <rect id="Rectangle-path" fill="#755230" x="5.03136732" y="5.46848555" width="83.0321978" height="29.6831734"></rect>
                                <rect id="Rectangle-path" fill="#8A6038" x="0.203416462" y="35.1509094" width="92.6865983" height="39.3234778"></rect>
                                <rect id="Rectangle-path" fill="#755230" x="5.03136732" y="39.9718112" width="83.0321978" height="29.6831734"></rect>
                                <rect id="Rectangle-path" fill="#8A6038" x="0.203416462" y="67.6260385" width="92.6865983" height="39.3234778"></rect>
                                <rect id="Rectangle-path" fill="#755230" x="5.03136732" y="72.4454412" width="83.0321978" height="29.6831734"></rect>
                                <ellipse id="Oval" fill="#D9D9D9" cx="47.7233034" cy="21.4834432" rx="4.50518673" ry="4.49860886"></ellipse>
                                <ellipse id="Oval" fill="#8A6038" cx="46.5470909" cy="20.310447" rx="4.50518673" ry="4.49860886"></ellipse>
                                <ellipse id="Oval" fill="#D9D9D9" cx="47.7233034" cy="55.9867688" rx="4.50518673" ry="4.49860886"></ellipse>
                                <ellipse id="Oval" fill="#8A6038" cx="46.5470909" cy="54.8130231" rx="4.50518673" ry="4.49860886"></ellipse>
                                <ellipse id="Oval" fill="#D9D9D9" cx="47.7233034" cy="88.4611484" rx="4.50518673" ry="4.49860886"></ellipse>
                                <ellipse id="Oval" fill="#8A6038" cx="46.5470909" cy="87.2874027" rx="4.50518673" ry="4.49860886"></ellipse>
                                <rect id="Rectangle-path" fill="#755230" x="92.8907654" y="0.647583815" width="46.0216609" height="106.301183"></rect>
                            </g>
                            <rect id="Rectangle-path" fill="#8A6038" x="0.509667076" y="0.700799615" width="150.107087" height="6.69319846"></rect>
                            <polygon id="Shape" fill="#D9D9D9" points="6.20833047 7.39324855 6.20833047 18.7709364 98.8956794 18.7709364 144.91734 36.5637514 144.91734 7.39324855"></polygon>
                        </g>
                        <rect id="Rectangle-path" fill="#755230" fill-rule="nonzero" x="509.294912" y="217.535096" width="56.43193" height="6.69319846"></rect>
                        <g id="mobile" transform="translate(212.367188, 87.160156) rotate(15.000000) translate(-212.367188, -87.160156) translate(194.367188, 53.160156)">
                            <g id="Layer_1" transform="translate(-0.000000, -0.000000)">
                                <path d="M35.8066104,65.6635883 C35.8066104,66.7639388 34.8899003,67.6637054 33.7674701,67.6637054 L2.03914029,67.6637054 C0.91788478,67.6637054 0,66.7639388 0,65.6635883 L0,2.00055723 C0,0.900060002 0.91788478,0 2.03914029,0 L33.7676169,0 C34.8900471,0 35.8067572,0.900060002 35.8067572,2.00055723 L35.8067572,65.6635883 L35.8066104,65.6635883 Z" id="Shape" fill="#1B384C"></path>
                                <polygon id="Shape" fill="#DDDBDB" points="32.5429874 7.47120233 31.6858936 7.47120233 30.0467402 7.47120233 28.1818967 7.47120233 26.6257068 7.47120233 26.5192492 7.47120233 24.4344423 7.47120233 19.1893864 7.47120233 17.3710906 7.47120233 15.5059534 7.47120233 13.7601956 7.47120233 11.1439817 7.47120233 9.51951212 7.47120233 4.39339507 7.47120233 4.2072044 7.47120233 2.58038542 7.47120233 1.64502691 7.47120233 1.64458639 14.6873828 1.64223698 14.6853285 1.64223698 16.6291001 1.64443955 16.6311543 1.64414588 21.993804 1.64414588 21.993804 1.64370536 28.487618 1.64223698 28.487618 1.64223698 30.0924365 1.64355852 30.0924365 1.64282433 46.2056234 1.64223698 46.2056234 1.64223698 47.6645893 1.64282433 47.6645893 1.64253066 55.1121676 1.64223698 55.1118742 1.64223698 57.0557925 1.64238382 57.0560859 1.64223698 61.9053169 1.75765171 61.9053169 3.43689188 61.9053169 7.16188006 61.9053169 9.28295599 61.9053169 9.28295599 61.9053169 9.51951212 61.9053169 10.8925949 61.9053169 11.1439817 61.9053169 12.7539143 61.9053169 12.9913515 61.9053169 14.4070173 61.9053169 19.3686757 61.9053169 19.4492898 61.9053169 21.2198633 61.9053169 25.6173698 61.9053169 27.4240654 61.9053169 27.8224371 61.9053169 29.9830125 61.9053169 34.1643734 61.9053169 34.1643734 57.4585745 34.1643734 54.4841505 34.1643734 53.7771911 34.1643734 52.878305 34.1643734 51.1293948 34.1643734 50.367704 34.1643734 48.3879828 34.1643734 30.092143 34.1643734 28.4873246 34.1643734 24.2471821 34.1643734 21.993804 34.1643734 12.3885174 34.1643734 10.6002828 34.1643734 7.47120233"></polygon>
                                <polygon id="Shape" fill="#E9E9F0" points="1.64223698 6.66563836 1.64223698 6.69586535 1.64443955 6.69615881 1.64414588 7.03276423 1.64355852 7.44009494 1.64223698 7.44009494 1.64223698 7.54075376 1.64355852 7.54075376 1.64311801 8.55145041 1.64223698 8.55145041 1.64223698 8.64301178 1.6426775 8.64301178 1.6426775 9.10976934 1.64223698 9.10976934 1.64223698 9.2319979 1.6426775 9.2319979 1.64223698 9.57036411 1.64223698 9.62274778 34.1643734 9.62274778 34.1643734 6.66563836"></polygon>
                                <path d="M19.7003829,64.8839961 C19.7003829,65.875324 18.896004,66.6792739 17.9035254,66.6792739 C16.9101659,66.6792739 16.1063743,65.875324 16.1063743,64.8839961 C16.1063743,63.8925215 16.9103127,63.0885716 17.9035254,63.0885716 C18.896004,63.0885716 19.7003829,63.8926682 19.7003829,64.8839961 Z" id="Shape" fill="#FFFFFF" opacity="0.2"></path>
                                <rect id="Rectangle-path" fill="#1B384C" x="2.8587904" y="7.48646256" width="9.14287247" height="1"></rect>
                                <rect id="Rectangle-path" fill="#1B384C" x="14.6584041" y="7.48646256" width="4.28546909" height="1"></rect>
                                <g id="Group" transform="translate(3.230438, 11.445171)" fill-rule="nonzero">
                                    <g transform="translate(8.810284, 0.000000)" id="Shape">
                                        <path d="M2.73911737,0.255021892 C2.55028361,0.396325736 0.555341583,1.83504245 0.0787052059,3.81784499 C-0.129951693,4.68709107 0.437724289,8.99795882 0.475608511,9.92560462 C0.495284812,10.4117309 0.983961912,9.74541654 1.29525862,10.066615 C1.23975383,9.50448101 5.36091112,5.78876217 6.1827638,5.59448772 C6.75543228,5.46008033 10.7799701,8.28307582 10.7441416,8.89509901 C10.7182981,9.3263472 10.8483967,9.63463315 10.8113935,10.0657346 C10.8420826,10.0807014 10.8714502,10.0961083 10.9014052,10.1109284 C11.014911,9.81775589 11.6022633,9.75598131 11.6677531,9.44945615 C11.8163532,8.75966449 11.7841957,6.1842075 11.5884605,4.92817333 C11.2705561,1.43812978 9.38177801,1.02228856 7.45144473,0.944079891 C2.63589021,0.748925049 3.37419203,-0.220979844 2.73911737,0.255021892 Z" fill="#000000"></path>
                                        <path d="M1.16266384,18.5402969 L9.37781338,20.31019 C8.81292733,19.9308852 10.3630968,18.2067729 9.82904677,17.3676071 C9.53258071,16.9027571 10.0098044,15.3779081 10.2008408,14.8603809 C9.34301276,16.1429738 7.9029718,16.9847808 6.26998562,16.9847808 C4.59280117,16.9847808 3.11884062,16.0954323 2.27041025,14.7532659 C2.28803082,14.7895089 2.30579822,14.8258987 2.32312512,14.8621417 C2.64455365,15.5315375 3.26244825,16.8957139 2.73911737,17.5976844 C2.64337895,17.7256355 1.46896806,18.152335 1.16266384,18.5402969 Z" fill="#E3AC91"></path>
                                    </g>
                                    <g transform="translate(8.663446, 4.695455)" id="Shape">
                                        <path d="M6.01933303,1.05178189 C4.99029183,1.54289712 3.95170616,1.65235991 2.88683647,1.16770093 C2.60050223,1.03740206 2.30506403,0.925885003 1.92122932,0.767706868 C1.72549417,2.22960739 1.53607306,3.64352623 1.34254048,5.08840573 C1.24166273,4.90601665 1.17426405,4.69149306 1.0321248,4.55385754 C0.886020918,4.4125537 0.666057489,4.27154332 0.480307329,4.27389104 C0.357844378,4.27535837 0.171360028,4.51394617 0.130098531,4.67593937 C-0.0856065952,5.51950718 0.0334790801,6.32888621 0.514373762,7.0615239 C0.607175422,7.20268101 1.30832721,7.58492038 1.36368516,7.6945299 C1.60126916,8.16466232 1.70493684,8.59473664 1.93679415,9.06780371 C2.09802235,9.39721922 2.25851636,9.72692819 2.41724832,10.0576643 C3.25070121,11.3765002 4.68839276,12.2573382 6.32960187,12.2878586 L6.32960187,0.899179604 C6.22608103,0.95097634 6.12285387,1.00233288 6.01933303,1.05178189 Z" fill="#F8D0A3"></path>
                                        <path d="M12.5230849,4.76236508 C12.4593571,4.54769476 12.2642093,4.24879971 12.0943177,4.22400184 C11.9198741,4.1984703 11.6648163,4.42884105 11.5159225,4.60609447 C11.3573374,4.79464633 11.2821563,5.05245615 11.1223965,5.37835006 C11.1121178,5.17130985 11.1132925,5.08150928 11.102867,4.99288257 C10.9391426,3.57881699 10.7688104,2.16548508 10.6138963,0.750539111 C10.5720474,0.362723887 10.3741097,0.140276714 10.0017283,0.10990299 C9.53258071,0.0716056865 9.05535698,0.0267053995 8.58899927,0.0685242942 C7.76538453,0.142624441 7.05131099,0.536308984 6.32960187,0.899032871 L6.32960187,12.2877119 C6.35867581,12.2882988 6.38745607,12.2891792 6.41682369,12.2891792 C8.04980987,12.2891792 9.48985083,11.4473722 10.3476788,10.1647794 C10.3749907,10.0925867 11.0159389,9.18783128 11.2990427,7.6540316 C11.3179848,7.54882407 11.6231143,7.47751185 11.70226,7.4025313 C11.8947648,7.22028896 12.1659747,7.08368057 12.2806552,6.86343439 C12.6222006,6.20430992 12.7386431,5.48663899 12.5230849,4.76236508 Z" fill="#EDBDA9"></path>
                                    </g>
                                    <polygon id="Shape" fill="#161D21" points="29.5040267 32.4623206 27.4966034 20.5157628 18.639331 17.2528619 14.9127276 19.0468191 11.77935 17.2528619 1.90551764 20.2582465 0.0425830405 32.4623206"></polygon>
                                    <polygon id="Shape" fill="#FFFFFF" points="18.2660686 32.4623206 19.9394353 17.827028 18.9804359 17.3139028 14.98042 19.0296514 10.9795231 17.4579946 10.1145 17.818224 12.0345546 32.4623206"></polygon>
                                    <polygon id="Shape" fill="#E5E1E1" points="11.6643758 17.13797 14.98042 19.0296514 13.1584532 21.6171405 10.3111162 17.7124296"></polygon>
                                    <polygon id="Shape" fill="#E5E1E1" points="18.5635626 17.0471423 14.9974532 19.0296514 16.8363063 21.502542 19.7542725 17.6637142"></polygon>
                                    <g transform="translate(6.314037, 17.607956)" id="Shape" fill="#000000">
                                        <polygon points="14.7362283 14.8543649 16.6755187 9.98136315 14.1314022 7.87867977 17.2409921 6.0795869 14.4672209 0.434036108 13.3957435 0.0394711673 11.5824402 14.8543649"></polygon>
                                        <polygon points="0.703941711 9.86705817 2.68875191 14.8543649 5.8344639 14.8543649 4.23040482 0.00528238671 3.20518141 0.332937095 0.138761977 5.96469499 3.24776445 7.76378786"></polygon>
                                    </g>
                                    <polygon id="Shape" fill="#E74C3C" points="13.2367179 32.4623206 16.712375 32.4623206 15.6768729 22.8159488 16.5072422 21.1072434 14.9882024 18.9533502 13.504991 21.1072434 14.3399123 22.8253397"></polygon>
                                </g>
                                <path d="M27.4355188,49.4269989 C27.4355188,51.5575616 25.706941,53.2846086 23.5745586,53.2846086 L12.4324858,53.2846086 C10.3002501,53.2846086 8.57181921,51.5574148 8.57181921,49.4269989 L8.57181921,49.4269989 C8.57181921,47.2962896 10.3002501,45.5689491 12.4324858,45.5689491 L23.5745586,45.5689491 C25.706941,45.5689491 27.4355188,47.2961428 27.4355188,49.4269989 L27.4355188,49.4269989 Z" id="Shape" fill="#52BA4A" fill-rule="nonzero"></path>
                                <path d="M17.7408289,26.3538273 C17.5033917,26.3532403 17.2992868,26.4891151 17.1973812,26.6861774 C13.7303875,26.0546388 13.4183566,23.9000119 13.4202655,23.8138797 L13.4202655,23.8138797 C13.3358336,23.8138797 13.2252645,23.9171797 13.2243835,24.0561358 C13.223943,24.125247 13.1816536,26.4907291 17.1706566,27.1922594 C17.260081,27.417788 17.4798976,27.5778737 17.7378921,27.5784606 C18.076207,27.579341 18.350941,27.3058307 18.3518221,26.967758 C18.3525563,26.6293918 18.0791438,26.3545609 17.7408289,26.3538273 Z" id="Shape" fill="#2D2D2D" fill-rule="nonzero"></path>
                            </g>
                        </g>
                        <path d="M335.408365,107.501312 C335.364829,107.867077 334.202128,116.565237 324.33155,117.142366 C314.349882,117.697759 311.383455,109.65168 311.261855,109.308401 L309.054299,110.163601 C309.089577,110.264786 312.686521,120.313578 324.462908,119.621023 C336.336124,118.928468 337.731516,107.910549 337.743526,107.79962 L335.408365,107.501312 Z" id="Shape" fill="#40251C" fill-rule="nonzero"></path>
                        <polygon id="Shape" fill="#40251C" fill-rule="nonzero" points="291.528206 89.087896 291.183674 86.7643892 313.851474 82.068657 314.196006 85.5651599"></polygon>
                        <polygon id="Shape" fill="#40251C" fill-rule="nonzero" points="362.171516 93.2612139 338.900222 86.9982389 339.511222 83.5572004 362.781765 90.9931715"></polygon>
                        <path d="M307.863074,86.8940559 C307.926125,88.86379 306.377608,90.5104817 304.405744,90.5734412 C302.433881,90.6364008 300.784031,89.0901445 300.720979,87.1211599 C300.657928,85.1521753 302.292765,86.2074971 304.26538,86.1445376 C306.237243,86.0823276 307.800773,84.9243218 307.863074,86.8940559 Z" id="Shape" fill="#40251C" fill-rule="nonzero"></path>
                        <path d="M350.004059,89.1246224 C350.067111,91.0943565 348.518593,92.7410482 346.54673,92.8040077 C344.574866,92.8669672 342.924265,91.320711 342.861964,89.3517264 C342.798913,87.3819923 344.390215,87.0866821 346.362079,87.0244721 C348.333942,86.9615125 349.941007,87.1548882 350.004059,89.1246224 Z" id="Shape" fill="#40251C" fill-rule="nonzero"></path>
                        <g id="Group-2" transform="translate(212.000000, 83.500000) rotate(28.000000) translate(-212.000000, -83.500000) translate(173.000000, 59.000000)" fill-rule="nonzero" fill="#A1B9C2">
                            <path d="M70.9557764,27.2224875 L69.658715,26.9863892 C72.7399865,10.0802543 63.0473047,1.33787283 62.9497248,1.25167823 L63.8189361,0.263813102 C63.9247727,0.355254335 74.169156,9.59306744 70.9557764,27.2224875 Z" id="Shape"></path>
                            <path d="M77.1085614,22.287659 L75.8024926,22.1175183 C77.2346646,11.1872929 71.577285,2.74621773 71.5209889,2.66302119 L72.6093796,1.92174759 C72.8548305,2.2822659 78.6060369,10.865 77.1085614,22.287659 Z" id="Shape"></path>
                            <path d="M18.7933403,46.7924104 C6.03289803,38.2636416 5.3303231,21.8356994 5.32356757,21.6700559 L6.64089558,21.6250848 C6.64614988,21.7839827 7.33521376,37.5508497 19.5266904,45.7003622 L18.7933403,46.7924104 Z" id="Shape"></path>
                            <path d="M12.2840135,48.1010694 C3.17906265,41.3254239 0.997777641,29.659921 0.90920516,29.1659884 L2.20626658,28.9351368 C2.22653317,29.0505626 4.3928059,40.5878979 13.0714079,47.0449981 L12.2840135,48.1010694 Z" id="Shape"></path>
                        </g>
                    </g>
                </g>
            </g>
        </g>
    </g>
</svg>