<?xml version="1.0" encoding="UTF-8" standalone="no"?>
<svg width="160px" height="158px" viewBox="0 0 160 158" version="1.1" xmlns="http://www.w3.org/2000/svg" xmlns:xlink="http://www.w3.org/1999/xlink">
    <!-- Generator: Sketch 43 (38999) - http://www.bohemiancoding.com/sketch -->
    <title>Group 17</title>
    <desc>Created with Sketch.</desc>
    <defs>
        <rect id="path-1" x="0" y="0" width="160" height="158" rx="30"></rect>
    </defs>
    <g id="Page-1" stroke="none" stroke-width="1" fill="none" fill-rule="evenodd">
        <g id="Homepage" transform="translate(-961.000000, -1084.000000)">
            <g id="Group-15" transform="translate(421.000000, 1084.000000)">
                <g id="Group-10" transform="translate(540.000000, 0.000000)">
                    <g id="Group-17">
                        <g id="Rectangle-3-Copy">
                            <use fill="#FFFFFF" fill-rule="evenodd" xlink:href="#path-1"></use>
                            <rect stroke="#91C8EC" stroke-width="4" x="2" y="2" width="156" height="154" rx="30"></rect>
                        </g>
                        <g id="telephone" transform="translate(34.000000, 49.000000)" fill-rule="nonzero">
                            <g id="Layer_1">
                                <g id="Group" transform="translate(31.563353, 7.857143)" fill="#D2555A">
                                    <rect id="Rectangle-path" x="0.098994152" y="0.0739285714" width="6.33239766" height="6.30535714"></rect>
                                    <rect id="Rectangle-path" x="22.2625653" y="0.0739285714" width="6.33239766" height="6.30535714"></rect>
                                </g>
                                <path d="M63.3245146,22.6946429 L63.3245146,15.1221429 C63.3245146,14.3303571 62.7355712,13.6508929 61.9475634,13.5446429 C51.3038986,12.1117857 40.5164055,12.1117857 29.8727407,13.5446429 C29.0847329,13.6507143 28.4957895,14.3305357 28.4957895,15.1221429 L28.4957895,22.6939286 C28.4957895,24.3001786 27.6767563,25.7969643 26.3211462,26.6676786 L22.6198051,29.0453571 C20.1015517,30.6630357 18.3485302,33.2275 17.7608421,36.15375 L14.2479844,53.6451786 L77.572499,53.6451786 L74.0601793,36.1557143 C73.4726706,33.23 71.7203665,30.6660714 69.2026511,29.0482143 L65.4986199,26.6678571 C64.1431891,25.7971429 63.3245146,24.3007143 63.3245146,22.6946429 Z" id="Shape" fill="#FF6464"></path>
                                <path d="M74.4064795,59.9508929 L17.4141832,59.9508929 C15.6654659,59.9508929 14.2479844,58.5394643 14.2479844,56.7982143 L14.2479844,53.6455357 L77.572499,53.6455357 L77.572499,56.7982143 C77.5726784,58.5394643 76.1551969,59.9508929 74.4064795,59.9508929 Z" id="Shape" fill="#D2555A"></path>
                                <path d="M45.9103314,0.0492857143 C20.5547368,0.0492857143 0,7.63839286 0,17 L0,24.1835714 C0,26.9721429 2.94095127,29.0005357 5.93283431,28.2755357 L21.7033918,24.4544643 C23.8317661,23.93875 25.3299493,22.0407143 25.3299493,19.8594643 L25.3299493,13.7730357 C25.3299493,12.22375 26.4574425,10.8832143 27.9959766,10.6514286 C39.8713294,8.86160714 51.949692,8.86160714 63.8250448,10.6514286 C65.3633996,10.8833929 66.4910721,12.2239286 66.4910721,13.7730357 L66.4910721,19.8594643 C66.4910721,22.0405357 67.989076,23.93875 70.1176296,24.4544643 L85.8880078,28.2755357 C88.8800702,29.0005357 91.8208421,26.9721429 91.8208421,24.1835714 L91.8208421,17 C91.8206628,7.63857143 71.2659259,0.0492857143 45.9103314,0.0492857143 Z" id="Shape" fill="#FF6464"></path>
                                <g id="Group" transform="translate(0.000000, 15.892857)" fill="#D2555A">
                                    <path d="M25.32977,0.0394642857 L0,6.26964286 L0,8.29089286 C0,11.0792857 2.94095127,13.1078571 5.93283431,12.3828571 L21.7033918,8.56178571 C23.8317661,8.04607143 25.3299493,6.14803571 25.3299493,3.96678571 L25.3299493,0.0394642857 L25.32977,0.0394642857 Z" id="Shape"></path>
                                    <path d="M66.4908928,0.132321429 L66.4908928,3.96678571 C66.4908928,6.14785714 67.9888967,8.04607143 70.1174503,8.56178571 L85.8880078,12.3828571 C88.8798908,13.1078571 91.8206628,11.0794643 91.8208421,8.29089286 L91.8208421,6.26982143 L66.4908928,0.132321429 Z" id="Shape"></path>
                                </g>
                                <ellipse id="Oval" fill="#D7DEED" cx="45.9103314" cy="33.1528571" rx="15.8311735" ry="15.7635714"></ellipse>
                                <ellipse id="Oval" fill="#B8BFD4" cx="45.9103314" cy="33.1528571" rx="11.0817856" ry="11.0344643"></ellipse>
                                <g id="Group" transform="translate(37.840156, 18.928571)" fill="#FFFFFF">
                                    <ellipse id="Oval" cx="8.07017544" cy="14.2242857" rx="7.91558674" ry="7.88178571"></ellipse>
                                    <ellipse id="Oval" cx="8.07017544" cy="2.40160714" rx="2.37460429" ry="2.36446429"></ellipse>
                                    <ellipse id="Oval" cx="8.07017544" cy="26.0469643" rx="2.37460429" ry="2.36446429"></ellipse>
                                </g>
                                <path d="M56.1226901,37.8433929 L55.9456842,38.1348214 C55.7283275,38.4928571 55.8140507,38.9558929 56.1449279,39.2133929 L60.7978324,42.8351786 C61.1900429,43.1403571 61.7619493,43.0357143 62.0194776,42.6116071 L62.927462,41.1155357 C63.1849903,40.69125 63.0119298,40.1383929 62.5582066,39.9346429 L57.1739649,37.5175 C56.7914386,37.3455357 56.3398674,37.4855357 56.1226901,37.8433929 Z" id="Shape" fill="#959CB3"></path>
                                <g id="Group" transform="translate(31.563353, 20.535714)" fill="#FFFFFF">
                                    <ellipse id="Oval" cx="2.47359844" cy="12.6171429" rx="2.37460429" ry="2.36446429"></ellipse>
                                    <ellipse id="Oval" cx="8.41037817" cy="22.8555357" rx="2.37460429" ry="2.36446429"></ellipse>
                                    <ellipse id="Oval" cx="20.2835789" cy="2.37875" rx="2.37460429" ry="2.36446429"></ellipse>
                                    <ellipse id="Oval" cx="4.06467836" cy="6.70571429" rx="2.37460429" ry="2.36446429"></ellipse>
                                    <ellipse id="Oval" cx="20.2835789" cy="22.8555357" rx="2.37460429" ry="2.36446429"></ellipse>
                                    <ellipse id="Oval" cx="8.41037817" cy="2.37875" rx="2.37460429" ry="2.36446429"></ellipse>
                                    <ellipse id="Oval" cx="4.06467836" cy="18.5283929" rx="2.37460429" ry="2.36446429"></ellipse>
                                </g>
                            </g>
                        </g>
                    </g>
                </g>
            </g>
        </g>
    </g>
</svg>