<?xml version="1.0" encoding="UTF-8" standalone="no"?>
<svg width="160px" height="158px" viewBox="0 0 160 158" version="1.1" xmlns="http://www.w3.org/2000/svg" xmlns:xlink="http://www.w3.org/1999/xlink">
    <!-- Generator: Sketch 43 (38999) - http://www.bohemiancoding.com/sketch -->
    <title>Group 16</title>
    <desc>Created with Sketch.</desc>
    <defs>
        <rect id="path-1" x="0" y="0" width="160" height="158" rx="30"></rect>
    </defs>
    <g id="Page-1" stroke="none" stroke-width="1" fill="none" fill-rule="evenodd">
        <g id="Homepage" transform="translate(-421.000000, -1085.000000)">
            <g id="Group-15" transform="translate(421.000000, 1084.000000)">
                <g id="Group-13" transform="translate(0.000000, 1.000000)">
                    <g id="Group-16">
                        <g id="Rectangle-3">
                            <use fill="#FFFFFF" fill-rule="evenodd" xlink:href="#path-1"></use>
                            <rect stroke="#91C8EC" stroke-width="4" x="2" y="2" width="156" height="154" rx="30"></rect>
                        </g>
                        <g id="list" transform="translate(32.000000, 31.000000)" fill-rule="nonzero">
                            <g id="Layer_1">
                                <path d="M75.8242126,10.8838583 L4.21988189,10.8838583 C1.98582677,10.8838583 0.152755906,12.7169291 0.152755906,14.9700787 L0.152755906,92.932874 C0.152755906,95.1860236 1.96673228,97 4.21988189,97 L75.8242126,97 C78.0773622,97 79.8913386,95.1860236 79.8913386,92.932874 L79.8913386,14.9700787 C79.8913386,12.7169291 78.0773622,10.8838583 75.8242126,10.8838583 Z" id="Shape" fill="#FFD15C"></path>
                                <rect id="Rectangle-path" fill="#FFFFFF" x="6.6257874" y="17.3568898" width="66.8116142" height="73.1700787"></rect>
                                <path d="M57.8562992,6.98858268 L47.0297244,6.98858268 C47.0297244,3.13149606 43.8982283,0 40.0411417,0 C36.1840551,0 33.0334646,3.13149606 33.0334646,6.98858268 L22.2068898,6.98858268 C19.9537402,6.98858268 18.1397638,8.80255906 18.1397638,11.0557087 L18.1397638,20.6220472 L61.9234252,20.6220472 L61.9234252,11.0557087 C61.9234252,8.82165354 60.0903543,6.98858268 57.8562992,6.98858268 Z M42.6188976,9.71909449 C38.761811,12.5832677 34.4464567,8.26791339 37.2915354,4.39173228 C37.3297244,4.35354331 37.3679134,4.31535433 37.4061024,4.27716535 C41.263189,1.43208661 45.5785433,5.72834646 42.7334646,9.60452756 C42.7143701,9.64271654 42.6761811,9.68090551 42.6188976,9.71909449 Z" id="Shape" fill="#4CDBC4"></path>
                                <path d="M35.0956693,47.5834646 L13.3661417,47.5834646 L13.3661417,25.853937 L35.0956693,25.853937 L35.0956693,47.5834646 Z M17.6624016,43.2872047 L30.780315,43.2872047 L30.780315,30.1692913 L17.6624016,30.1692913 L17.6624016,43.2872047 Z" id="Shape" fill="#FF7058"></path>
                                <path d="M35.0956693,78.0009843 L13.3661417,78.0009843 L13.3661417,56.2714567 L35.0956693,56.2714567 L35.0956693,78.0009843 Z M17.6624016,73.6856299 L30.780315,73.6856299 L30.780315,60.5677165 L17.6624016,60.5677165 L17.6624016,73.6856299 Z" id="Shape" fill="#84DBFF"></path>
                                <polygon id="Shape" fill="#40596B" points="22.3978346 41.0340551 18.9417323 37.5588583 20.4311024 36.0694882 22.3978346 38.055315 28.0307087 32.4224409 29.5200787 33.911811"></polygon>
                                <path d="M76.2442913,59.7275591 C75.5377953,59.021063 75.5377953,57.8753937 76.2442913,57.1688976 L90.2214567,43.1917323 L84.3785433,37.3488189 C83.6720472,36.6423228 83.6720472,35.4966535 84.3785433,34.7901575 C85.0850394,34.0836614 86.2307087,34.0836614 86.9372047,34.7901575 L94.0594488,41.9124016 C94.7659449,42.6188976 94.7659449,43.7645669 94.0594488,44.471063 L78.8029528,59.7275591 C78.0964567,60.4340551 76.9507874,60.4340551 76.2442913,59.7275591 Z" id="Shape" fill="#334A5E"></path>
                                <path d="M95.1096457,27.2478346 C92.8183071,24.9564961 89.0757874,24.9564961 86.7653543,27.2478346 L42.7334646,71.2797244 L40.365748,81.9917323 L51.0777559,79.6240157 L95.1096457,35.592126 C96.255315,34.4464567 96.8281496,32.9379921 96.8472441,31.4295276 C96.8281496,29.9019685 96.255315,28.3935039 95.1096457,27.2478346 Z" id="Shape" fill="#CDD6E0"></path>
                                <g id="Group" transform="translate(40.289370, 29.405512)" fill="#40596B">
                                    <rect id="Rectangle-path" transform="translate(40.232491, 12.430596) rotate(135.000000) translate(-40.232491, -12.430596) " x="28.5850608" y="6.53055078" width="23.2948612" height="11.8000896"></rect>
                                    <polygon id="Shape" points="10.7883858 50.2185039 0.0763779528 52.5862205 2.44409449 41.8742126"></polygon>
                                </g>
                            </g>
                        </g>
                    </g>
                </g>
            </g>
        </g>
    </g>
</svg>