<?xml version="1.0" encoding="UTF-8" standalone="no"?>
<svg width="214px" height="248px" viewBox="0 0 214 248" version="1.1" xmlns="http://www.w3.org/2000/svg" xmlns:xlink="http://www.w3.org/1999/xlink">
    <!-- Generator: Sketch 43 (38999) - http://www.bohemiancoding.com/sketch -->
    <title>Page 1</title>
    <desc>Created with Sketch.</desc>
    <defs>
        <polygon id="path-1" points="0.284016958 49.0484437 10.4220668 49.0484437 10.4220668 0.428214239 0.284016958 0.428214239 0.284016958 49.0484437"></polygon>
        <polygon id="path-3" points="0.0918972569 49.5815789 4.55334364 49.5815789 4.55334364 0.29652983 0.0918972569 0.29652983"></polygon>
    </defs>
    <g id="Page-1" stroke="none" stroke-width="1" fill="none" fill-rule="evenodd">
        <g id="Homepage" transform="translate(-348.000000, -655.000000)">
            <g id="Page-1" transform="translate(348.000000, 655.000000)">
                <path d="M15.6660274,88.3262775 C15.6660274,88.3262775 8.88633666,37.4113272 6.47309975,30.5466777 C6.47309975,30.5466777 -8.09117456,14.3932125 6.47309975,6.720863 C21.0373741,-0.952019629 129.851304,-4.18281929 140.595599,8.73984622 C151.339893,21.6619786 153.220531,72.1413573 153.220531,72.1413573 L151.339893,127.677524 L59.2862718,135.13502 L15.6660274,88.3262775 Z" id="Fill-1" fill="#83B5B1"></path>
                <path d="M202.548065,83.1937843 C202.548065,83.1937843 195.261392,76.1793237 155.646309,72.1413573 C155.646309,72.1413573 136.243287,73.3521075 141.498294,124.638653 L175.49601,135.13502 C175.49601,135.13502 181.134723,76.4778795 202.548065,83.1937843" id="Fill-3" fill="#6E9996"></path>
                <polygon id="Fill-5" fill="#7D7561" points="23.0745367 170.41194 23.0745367 217.932418 28.176382 217.932418 33.2125865 169.312082"></polygon>
                <polygon id="Fill-7" fill="#66604F" points="23.0745367 170.41194 18.6130903 168.647262 19.5800928 214.401463 23.0745367 217.932418"></polygon>
                <g id="Group-11" transform="translate(53.900249, 198.758155)">
                    <mask id="mask-2" fill="white">
                        <use xlink:href="#path-1"></use>
                    </mask>
                    <g id="Clip-10"></g>
                    <polygon id="Fill-9" fill="#918770" mask="url(#mask-2)" points="0.284016958 1.52807228 0.284016958 49.0485503 5.38586234 49.0485503 10.4220668 0.428214239"></polygon>
                </g>
                <g id="Group-14" transform="translate(49.630923, 198.225020)">
                    <mask id="mask-4" fill="white">
                        <use xlink:href="#path-3"></use>
                    </mask>
                    <g id="Clip-13"></g>
                    <polygon id="Fill-12" fill="#7D7561" mask="url(#mask-4)" points="4.55334364 2.06120753 0.0918972569 0.29652983 1.05889975 46.0507308 4.55334364 49.5816856"></polygon>
                </g>
                <polygon id="Fill-15" fill="#918770" points="197.055042 185.349057 197.055042 232.869535 202.156354 232.869535 207.192559 184.249199"></polygon>
                <polygon id="Fill-17" fill="#7D7561" points="197.055042 185.349057 192.593062 183.58438 193.560065 229.33858 197.055042 232.869535"></polygon>
                <polygon id="Fill-19" fill="#7D7561" points="165.944779 155.47477 165.944779 202.995248 171.047158 202.995248 176.082295 154.374912"></polygon>
                <polygon id="Fill-21" fill="#66604F" points="165.944779 155.47477 161.483866 153.710092 162.450335 199.464293 165.944779 202.995248"></polygon>
                <path d="M197.026918,111.258877 C197.026918,111.258877 210.666883,109.417428 208.086075,93.5817116 C205.506335,77.745995 189.653791,78.1138583 183.386953,83.2698094 C177.119582,88.4257605 170.852744,98.0014029 177.119582,151.0329 L177.487811,180.495554 L199.238963,180.495554 C199.238963,180.495554 204.030215,172.025101 197.026918,111.258877" id="Fill-23" fill="#94BFBB"></path>
                <path d="M45.6956708,117.370153 L10.5276259,108.889571 C10.5276259,108.889571 -2.00338155,90.3140723 16.9951222,80.6216733 C16.9951222,80.6216733 52.3334065,77.6665046 59.286005,85.7083168 L45.6956708,117.370153 Z" id="Fill-25" fill="#6E9996"></path>
                <path d="M13.3856733,109.578808 C13.3856733,109.578808 7.75496509,168.657125 13.3856733,174.714075 C19.0163815,180.771025 43.2704264,193.290107 43.2704264,193.290107 C43.2704264,193.290107 56.0036933,142.713164 45.695404,117.370047 L13.3856733,109.578808 Z" id="Fill-27" fill="#68918E"></path>
                <path d="M45.6956708,117.370153 C45.6956708,117.370153 30.7391521,115.350637 33.5686484,97.9864218 C36.3981446,80.6216733 53.7801746,81.0252567 60.6521895,86.6791561 C67.5242045,92.3325223 74.3962195,102.832088 67.5242045,160.983816 L67.1202195,193.28968 L43.2701596,193.28968 C43.2701596,193.28968 38.0151521,184.001931 45.6956708,117.370153" id="Fill-29" fill="#94BFBB"></path>
                <path d="M42.6677042,148.480462 C42.6677042,148.480462 38.8237092,185.617064 43.270213,193.289947 C43.270213,193.289947 50.1416943,202.577696 61.0562279,199.751013 C71.9707616,196.92433 179.520437,191.415443 208.410971,190.607743 C208.410971,190.607743 222.538707,164.167434 204.212622,142.31102 C204.212622,142.31102 124.932826,124.670108 42.6677042,148.480462" id="Fill-31" fill="#83B5B1"></path>
                <path d="M141.498294,124.638813 C141.498294,124.638813 97.0674115,118.314762 70.3707781,127.466029 L69.7100998,138.241759 C69.7100998,138.241759 43.0662993,142.776608 42.6676509,148.480622 C42.6676509,148.480622 43.6746783,154.553565 73.183197,148.480622 C102.692249,142.407145 204.212569,142.310647 204.212569,142.310647 C204.212569,142.310647 205.047756,134.323748 175.49601,135.134647 L141.498294,124.638813 Z" id="Fill-33" fill="#7AA8A4"></path>
                <path d="M102.007823,72.4100575 C102.007823,72.4100575 96.2490349,68.8817683 95.2857681,70.4801078 C94.3230349,72.0779142 98.6393242,76.2438331 98.6393242,76.2438331 C98.6393242,76.2438331 87.7338628,101.989468 95.7084314,121.420115 C95.7084314,121.420115 90.9694788,128.651029 93.8672843,128.072577 C96.7645561,127.495192 99.8646209,125.721451 99.8646209,125.721451 C99.8646209,125.721451 120.987648,133.520153 151.414072,131.009619 C151.414072,131.009619 154.249439,133.267447 156.659474,132.314734 C159.069509,131.361489 153.980471,128.134421 153.980471,128.134421 C153.980471,128.134421 160.572845,106.070618 152.36293,78.3022683 C152.36293,78.3022683 155.963574,74.3917212 154.685444,72.7901829 C153.406781,71.1886446 148.598451,74.3799923 148.598451,74.3799923 C148.598451,74.3799923 124.438332,63.8079201 102.007823,72.4100575" id="Fill-35" fill="#D7C9A8"></path>
                <path d="M153.980578,128.134421 C153.980578,128.134421 160.572952,106.070618 152.363037,78.3022683 C152.363037,78.3022683 155.96368,74.3917212 154.685551,72.7901829 C154.537192,72.6046518 154.340269,72.4862958 154.110793,72.4169882 C153.770847,73.9326918 152.557291,76.1659954 148.555865,77.6326505 C148.555865,77.6326505 159.166743,113.287137 145.097177,126.828773 C145.097177,126.828773 128.625047,130.751049 102.029276,124.16203 C102.029276,124.16203 96.1376055,126.723745 93.1490768,126.3063 C92.7712414,127.448809 92.806997,128.283699 93.8668574,128.072577 C96.7646628,127.495192 99.8647277,125.721451 99.8647277,125.721451 C99.8647277,125.721451 120.987755,133.520153 151.414179,131.009619 C151.414179,131.009619 154.249012,133.267447 156.659581,132.314734 C159.069615,131.361489 153.980578,128.134421 153.980578,128.134421" id="Fill-37" fill="#C6BA9C"></path>
            </g>
        </g>
    </g>
</svg>